<?xml version="1.0" encoding="UTF-8"?>
<svg width="34px" height="34px" viewBox="0 0 34 34" version="1.1" xmlns="http://www.w3.org/2000/svg"
     xmlns:xlink="http://www.w3.org/1999/xlink">
    <!-- Generator: sketchtool 52.4 (67378) - http://www.bohemiancoding.com/sketch -->
    <title>8E0D776A-AF65-49D7-B78A-8E8E7DDBF8D2</title>
    <desc>Created with sketchtool.</desc>
    <g id="Desktop" stroke="none" stroke-width="1" fill="none" fill-rule="evenodd">
        <g id="Become-Organiser-Mobile" transform="translate(-144.000000, -1933.000000)" stroke="#C4C0D4">
            <g id="Logo-Cover" transform="translate(0.000000, 1828.000000)">
                <g id="Upload" transform="translate(145.000000, 106.000000)">
                    <circle id="Oval" stroke-width="2" fill-rule="nonzero" cx="16" cy="16" r="16"></circle>
                    <g id="noun_Arrow_1759562"
                       transform="translate(16.000000, 16.000000) rotate(90.000000) translate(-16.000000, -16.000000) translate(6.500000, 9.500000)"
                       fill="#C4C0D4">
                        <g id="Group" transform="translate(0.000000, 0.191346)">
                            <path
                                d="M4.6015625e-05,5.80866 C4.6015625e-05,5.9475 0.0831413281,6.13185 0.167453828,6.22131 L4.91736477,11.3214 C5.13913039,11.55309 5.49840852,11.57994 5.75695695,11.3448 C5.98810383,11.13459 5.9938632,10.72461 5.7801132,10.49634 L1.96719914,6.40878 L18.406204,6.40878 C18.7341321,6.40878 18.999954,6.14016 18.999954,5.80878 C18.999954,5.4774 18.7341321,5.20875 18.406204,5.20875 L1.96719914,5.20875 L5.7801132,1.12119 C5.99383352,0.89295 5.9786632,0.49305 5.75695695,0.27276 C5.52287102,0.0402 5.13574602,0.0609 4.91736477,0.29616 L0.167453828,5.39622 C0.0278928906,5.53455 0.00239132812,5.66778 4.6015625e-05,5.80866 Z"
                                id="Path"></path>
                        </g>
                    </g>
                </g>
            </g>
        </g>
    </g>
</svg>
