<?xml version="1.0" encoding="UTF-8"?>
<svg width="16px" height="16px" viewBox="0 0 16 16" version="1.1" xmlns="http://www.w3.org/2000/svg" xmlns:xlink="http://www.w3.org/1999/xlink">
    <!-- Generator: Sketch 55.1 (78136) - https://sketchapp.com -->
    <title>back</title>
    <desc>Created with Sketch.</desc>
    <g id="Appraisal-mobile" stroke="none" stroke-width="1" fill="none" fill-rule="evenodd">
        <g id="Filter" transform="translate(-16.000000, -39.000000)" fill="#FFFFFF">
            <g id="Header">
                <g id="back" transform="translate(24.000000, 47.000000) rotate(90.000000) translate(-24.000000, -47.000000) translate(16.000000, 39.000000)">
                    <g id="Group">
                        <path d="M7.99999418,15.7729422 C8.25999418,15.7629867 8.56050327,15.6583467 8.74999418,15.4840533 L15.6590996,9.08405333 C16.1119324,8.71036444 16.1028524,7.99146667 15.6948087,7.57134222 C15.2867687,7.15118222 14.5641578,7.11672889 14.1590996,7.53969778 L9.09091782,12.2285511 L9.09091782,1.19522844 C9.09091782,0.606108444 8.60246691,0.128561778 7.99999418,0.128561778 C7.39748509,0.128561778 6.90908509,0.606108444 6.90908509,1.19522844 L6.90908509,12.2285511 L1.84090327,7.53969778 C1.43584873,7.1168 0.710176,7.15139556 0.302139636,7.57169778 C-0.105896727,7.99182222 -0.107678545,8.72092444 0.340903273,9.08426667 L7.24999418,15.4842667 C7.46155782,15.6789333 7.70835782,15.7703111 7.99999418,15.7731556 L7.99999418,15.7729422 Z" id="Path"></path>
                    </g>
                </g>
            </g>
        </g>
    </g>
</svg>