<svg width="12" height="12" viewBox="0 0 12 12" fill="none" xmlns="http://www.w3.org/2000/svg">
<path d="M12 1.28571V10.7143C12 11.4241 11.4241 12 10.7143 12H8.42946V7.25357H10.0527L10.2857 5.44286H8.42946V4.28571C8.42946 3.76071 8.57411 3.40446 9.32679 3.40446H10.2857V1.78661C10.1196 1.76518 9.55179 1.71429 8.8875 1.71429C7.50536 1.71429 6.55714 2.55804 6.55714 4.10893V5.44554H4.92857V7.25625H6.55982V12H1.28571C0.575893 12 0 11.4241 0 10.7143V1.28571C0 0.575893 0.575893 0 1.28571 0H10.7143C11.4241 0 12 0.575893 12 1.28571Z" fill="#3B5998"/>
</svg>
