<svg width="12" height="12" viewBox="0 0 12 12" fill="none" xmlns="http://www.w3.org/2000/svg">
<path d="M10.7143 0H1.28571C0.575893 0 0 0.575893 0 1.28571V10.7143C0 11.4241 0.575893 12 1.28571 12H10.7143C11.4241 12 12 11.4241 12 10.7143V1.28571C12 0.575893 11.4241 0 10.7143 0ZM4.39286 8.67857C2.91161 8.67857 1.71429 7.48125 1.71429 6C1.71429 4.51875 2.91161 3.32143 4.39286 3.32143C5.11607 3.32143 5.71875 3.58393 6.1875 4.02321L5.46161 4.72232C5.26339 4.53214 4.91786 4.30982 4.39554 4.30982C3.48214 4.30982 2.7375 5.06518 2.7375 6.00268C2.7375 6.9375 3.48214 7.69554 4.39554 7.69554C5.45625 7.69554 5.85268 6.93214 5.91696 6.54107H4.39286V5.61964H6.92143C6.94821 5.75357 6.96429 5.89018 6.96429 6.06429C6.96429 7.59375 5.93839 8.67857 4.39286 8.67857ZM10.2857 6.4875H9.50893V7.26429H8.72679V6.4875H7.95V5.70536H8.72679V4.92857H9.50893V5.70536H10.2857V6.4875Z" fill="#DB4437"/>
</svg>
