<?xml version="1.0" encoding="UTF-8" standalone="no"?>
<svg width="42px" height="42px" viewBox="0 0 42 42" version="1.1" xmlns="http://www.w3.org/2000/svg" xmlns:xlink="http://www.w3.org/1999/xlink">
    <!-- Generator: Sketch 46 (44423) - http://www.bohemiancoding.com/sketch -->
    <title>linkedin</title>
    <desc>Created with Sketch.</desc>
    <defs></defs>
    <g id="L" stroke="none" stroke-width="1" fill="none" fill-rule="evenodd">
        <g id="bciWa1-ui-00-modal-03-share" transform="translate(-752.000000, -357.000000)" fill-rule="nonzero" fill="#0079BE">
            <g id="social-share" transform="translate(506.000000, 315.000000)">
                <path d="M267,42 C255.4018,42 246,51.4021741 246,62.999599 C246,74.5978259 255.4018,84 267,84 C278.5975,84 288,74.5979262 288,62.999599 C288,51.4021741 278.5975,42 267,42 Z M260.8398,72.2644258 L256.0041,72.2644258 L256.0041,57.6753362 L260.8398,57.6753362 L260.8398,72.2644258 Z M258.422,55.6831989 L258.3911,55.6831989 C256.7677,55.6831989 255.718,54.5621643 255.718,53.1618235 C255.718,51.7321083 256.7993,50.6427538 258.4544,50.6427538 C260.1087,50.6427538 261.1274,51.7321083 261.1591,53.1618235 C261.1591,54.5621643 260.1087,55.6831989 258.422,55.6831989 Z M278.2819,72.2644258 L273.4455,72.2644258 L273.4455,64.4587887 C273.4455,62.4984317 272.746,61.1599473 270.9945,61.1599473 C269.6595,61.1599473 268.8636,62.0620283 268.5134,62.9332312 C268.3862,63.2458216 268.3545,63.680621 268.3545,64.1169242 L268.3545,72.264526 L263.5173,72.264526 C263.5173,72.264526 263.5813,59.0440972 263.5173,57.6754365 L268.3545,57.6754365 L268.3545,59.740859 C268.996,58.7482491 270.1459,57.33277 272.7128,57.33277 C275.8964,57.33277 278.2818,59.417742 278.2818,63.8988729 L278.2818,72.2644258 L278.2819,72.2644258 Z" id="linkedin"></path>
            </g>
        </g>
    </g>
</svg>
