<?xml version="1.0" encoding="UTF-8"?>
<svg width="25px" height="25px" viewBox="0 0 25 25" version="1.1" xmlns="http://www.w3.org/2000/svg" xmlns:xlink="http://www.w3.org/1999/xlink">
    <!-- Generator: Sketch 53.2 (72643) - https://sketchapp.com -->
    <title>google-plus</title>
    <desc>Created with Sketch.</desc>
    <g id="Mobile" stroke="none" stroke-width="1" fill="none" fill-rule="evenodd" opacity="0.200000003">
        <g id="Learning-Playlist-Mobile-2" transform="translate(-96.000000, -405.000000)" fill-rule="nonzero">
            <g id="google-plus" transform="translate(96.000000, 405.000000)">
                <path d="M10.3808371,14.5363182 C10.3049212,14.4901656 10.2271191,14.4401311 10.1455449,14.3896653 C9.90836647,14.3232402 9.65657074,14.2887336 9.39864514,14.2857143 L9.36752432,14.2857143 C8.18210396,14.2857143 7.14285714,14.9417702 7.14285714,15.6905625 C7.14285714,16.5057798 8.03357276,17.1428571 9.16995426,17.1428571 C10.6689405,17.1428571 11.4285714,16.6692547 11.4285714,15.7375776 C11.4285714,15.6495859 11.4172548,15.5581435 11.3932069,15.4662698 C11.2918284,15.1048137 10.9292237,14.8792271 10.3808371,14.5363182 Z" id="Shape" fill="#000000"></path>
                <path d="M9.59777501,10.7142857 C9.59875618,10.7142857 9.59875618,10.7142857 9.59875618,10.7142857 C9.89359979,10.7142857 10.1423281,10.6060329 10.3351293,10.4004896 C10.6373318,10.0798421 10.7712624,9.55365136 10.6917871,8.99503042 C10.5519694,7.99654687 9.78517976,7.16523852 8.98503013,7.14377067 L8.95314189,7.14285714 C8.6700724,7.14285714 8.41741939,7.2515667 8.22559934,7.45619644 C7.9278122,7.77273309 7.80173099,8.27425867 7.87973454,8.83196609 C8.02004281,9.82953611 8.80302185,10.6914476 9.58649148,10.7142857 L9.59777501,10.7142857 L9.59777501,10.7142857 Z" id="Shape" fill="#000000"></path>
                <path d="M12.5,0 C5.6075284,0 0,5.6075284 0,12.5 C0,19.3919681 5.6075284,25 12.5,25 C19.3919681,25 25,19.3919681 25,12.5 C25,5.6075284 19.3929751,0 12.5,0 Z M11.0589704,18.5868646 C10.5866833,18.7233143 10.0756264,18.7922944 9.53939418,18.7922944 C8.94223798,18.7922944 8.36824297,18.7238178 7.8330178,18.5883751 C6.79730927,18.3270563 6.0319826,17.831608 5.67449448,17.1931644 C5.52042214,16.917244 5.44237896,16.6231975 5.44237896,16.3185773 C5.44237896,16.0048941 5.51740111,15.6866793 5.6654314,15.3714855 C6.23288085,14.162068 7.7287924,13.3484049 9.38582534,13.3484049 C9.40244099,13.3484049 9.41804963,13.3484049 9.43315476,13.3484049 C9.29871908,13.1112543 9.23376702,12.8655442 9.23376702,12.6072464 C9.23376702,12.4788528 9.25088617,12.3479417 9.28512447,12.214513 C7.54702731,12.1752397 6.24647547,10.9023806 6.24647547,9.22420044 C6.24647547,8.0394546 7.19356723,6.88491904 8.54799404,6.41867397 C8.95331507,6.27869975 9.36669218,6.20720213 9.77302022,6.20720213 L13.4898896,6.20720213 C13.6162692,6.20720213 13.7285507,6.28927334 13.7678241,6.40961089 C13.8070974,6.52944494 13.763796,6.66136309 13.6615846,6.73537823 L12.8302989,7.33706598 C12.7804519,7.37231129 12.7205349,7.39144445 12.6586039,7.39144445 L12.3610328,7.39144445 C12.7452066,7.85215097 12.9702731,8.5092242 12.9702731,9.24685813 C12.9702731,10.0610247 12.5584065,10.8308829 11.8086885,11.4174656 C11.2296584,11.8686055 11.2070007,11.9929711 11.2070007,12.2502618 C11.2140498,12.3917466 11.6173568,12.8534601 12.0624547,13.1681503 C13.0991702,13.9012527 13.4848546,14.6207605 13.4848546,15.821115 C13.4843511,17.0753444 12.5322243,18.1588858 11.0589704,18.5868646 Z M19.4528921,12.211492 C19.4528921,12.3726134 19.3214775,12.5035245 19.1608596,12.5035245 L17.0486587,12.5035245 L17.0486587,14.6167325 C17.0486587,14.7778539 16.917244,14.908765 16.7576331,14.908765 L16.1559454,14.908765 C15.993817,14.908765 15.8629058,14.7778539 15.8629058,14.6167325 L15.8629058,12.5035245 L13.7522154,12.5035245 C13.591094,12.5035245 13.4601829,12.3736204 13.4601829,12.211492 L13.4601829,11.6108112 C13.4601829,11.4496898 13.591094,11.3177717 13.7522154,11.3177717 L15.8629058,11.3177717 L15.8629058,9.20657778 C15.8629058,9.04495287 15.993817,8.91454523 16.1559454,8.91454523 L16.7576331,8.91454523 C16.917244,8.91454523 17.0486587,9.04495287 17.0486587,9.20657778 L17.0486587,11.3177717 L19.1603561,11.3177717 C19.320974,11.3177717 19.4523886,11.4486828 19.4523886,11.6098042 L19.4523886,12.211492 L19.4528921,12.211492 Z" id="Shape" fill="#3E3564"></path>
            </g>
        </g>
    </g>
</svg>