<?xml version="1.0" encoding="UTF-8"?>
<svg width="25px" height="25px" viewBox="0 0 25 25" version="1.1" xmlns="http://www.w3.org/2000/svg" xmlns:xlink="http://www.w3.org/1999/xlink">
    <!-- Generator: Sketch 53.2 (72643) - https://sketchapp.com -->
    <title>linkedin</title>
    <desc>Created with Sketch.</desc>
    <g id="Desktop" stroke="none" stroke-width="1" fill="none" fill-rule="evenodd" opacity="0.200000003">
        <g id="Learning-Playlist-Desktop-1" transform="translate(-751.000000, -489.000000)" fill-rule="nonzero">
            <g id="linkedin" transform="translate(751.000000, 489.000000)">
                <path d="M17.1632494,0.898673726 C15.722489,0.318915622 14.1483909,0 12.4996756,0 C6.12217752,0 0.859719699,4.77659685 0.0957046457,10.9469491 C0.0324422528,11.4563056 0,11.9747463 0,12.5006489 C0,19.4055127 5.59628861,25 12.4996756,25 C19.4043602,25 25,19.4055127 25,12.5006489 C25,7.2448675 21.7577213,2.74728127 17.1632494,0.898673726 Z" id="Path" fill="#3E3564"></path>
                <path d="M19,13.5180439 L19,18 L16.0522793,18 L16.0522793,13.8182183 C16.0522793,12.7677207 15.6259233,12.0507971 14.5589461,12.0507971 C13.7444443,12.0507971 13.2597338,12.5339511 13.0464918,13.0013212 C12.9687284,13.1684042 12.9487119,13.4009618 12.9487119,13.6348442 L12.9487119,18 L10,18 C10,18 10.0397131,10.9174344 10,10.1836278 L12.9484242,10.1836278 L12.9484242,11.2915673 C12.9424448,11.2998538 12.9346749,11.3087886 12.9290472,11.3168214 L12.9484242,11.3168214 L12.9484242,11.2915673 C13.3401511,10.7597372 14.0397344,10 15.6056191,10 C17.5456445,9.99997181 19,11.1171561 19,13.5180439 Z M7.50913876,6 C6.59676673,6 6,6.64770202 6,7.49945224 C6,8.33264124 6.57950142,9 7.47374053,9 L7.49155532,9 C8.42159755,9 9,8.33276645 9,7.49945224 C8.98247441,6.64770202 8.42159755,6 7.50913876,6 Z M6,18 L9,18 L9,10 L6,10 L6,18 Z" id="LinkedIn" fill="#FFFFFF"></path>
            </g>
        </g>
    </g>
</svg>