<?xml version="1.0" encoding="UTF-8"?>
<svg width="10px" height="6px" viewBox="0 0 10 6" version="1.1" xmlns="http://www.w3.org/2000/svg" xmlns:xlink="http://www.w3.org/1999/xlink">
    <!-- Generator: Sketch 53.2 (72643) - https://sketchapp.com -->
    <title>Path</title>
    <desc>Created with Sketch.</desc>
    <g id="Mobile" stroke="none" stroke-width="1" fill="none" fill-rule="evenodd">
        <g id="Profile-(Organiser)" transform="translate(-281.000000, -69.000000)" fill="#A59FC0">
            <g id="Profile" transform="translate(16.000000, 3.000000)">
                <g id="noun_arrow,-arrows,-down-arrow_1807788" transform="translate(270.000000, 68.500000) scale(-1, 1) translate(-270.000000, -68.500000) translate(265.000000, 65.000000)">
                    <g id="Group">
                        <path d="M5.46874636,6.64528667 L9.78693727,2.24528667 C10.0699577,1.98837556 10.0642827,1.49413333 9.80925545,1.20529778 C9.55423045,0.916437778 9.10259864,0.892751111 8.84943727,1.18354222 L4.99999999,4.77530415 L1.15056455,1.18354222 C0.897405455,0.8928 0.44386,0.916584444 0.188837273,1.20554222 C-0.0661854545,1.49437778 -0.0672990909,1.99563556 0.213064545,2.24543333 L4.53124636,6.64543333 C4.66347364,6.77926667 4.81772364,6.84208889 4.99999636,6.84404444 C5.16249636,6.83705333 5.35031455,6.76511333 5.46874636,6.64528667 Z" id="Path"></path>
                    </g>
                </g>
            </g>
        </g>
    </g>
</svg>