<?xml version="1.0" encoding="UTF-8"?>
<svg width="12px" height="13px" viewBox="0 0 12 13" version="1.1" xmlns="http://www.w3.org/2000/svg" xmlns:xlink="http://www.w3.org/1999/xlink">
    <!-- Generator: Sketch 53.2 (72643) - https://sketchapp.com -->
    <title>noun_Library_2017706</title>
    <desc>Created with Sketch.</desc>
    <g id="Mobile" stroke="none" stroke-width="1" fill="none" fill-rule="evenodd">
        <g id="Profile-(User)" transform="translate(-17.000000, -239.000000)">
            <g id="noun_Library_2017706" transform="translate(17.000000, 239.000000)">
                <g id="Group">
                    <path d="M9,0.611764706 C9,0.305882353 8.7,0 8.4,0 L3.6,0 C3.3,0 3,0.305882353 3,0.611764706 L3,0.764705882 L9,0.764705882 L9,0.611764706 Z" id="Path" fill="#3E3564"></path>
                    <path d="M10.5,2.14117647 C10.5,1.83529412 10.2,1.52941176 9.9,1.52941176 L2.1,1.52941176 C1.8,1.52941176 1.5,1.83529412 1.5,2.14117647 L1.5,2.29411765 L10.5,2.29411765 L10.5,2.14117647 Z" id="Path" fill="#3E3564"></path>
                    <path d="M10.35,3.05882353 C11.25,3.05882353 12,3.82352941 12,4.66470588 L12,11.3176471 C12,12.2352941 11.25,13 10.425,13 L1.575,13 C0.75,13 0,12.2352941 0,11.3941176 L0,4.66470588 C0,3.82352941 0.75,3.05882353 1.575,3.05882353 L10.35,3.05882353 Z" id="Shape" fill="#3E3564" fill-rule="nonzero"></path>
                    <polygon id="Path" fill="#FFFFFF" fill-rule="nonzero" points="4.5 10.4 8.25 8.02941176 4.5 5.65882353"></polygon>
                </g>
            </g>
        </g>
    </g>
</svg>