<?xml version="1.0" encoding="UTF-8"?>
<svg width="13px" height="12px" viewBox="0 0 13 12" version="1.1" xmlns="http://www.w3.org/2000/svg"
     xmlns:xlink="http://www.w3.org/1999/xlink">
    <!-- Generator: Sketch 52.3 (67297) - http://www.bohemiancoding.com/sketch -->
    <title>Home</title>
    <desc>Created with Sketch.</desc>
    <g id="Symbols" stroke="none" stroke-width="1" fill="none" fill-rule="evenodd">
        <g id="Menu_Mobile" transform="translate(-46.000000, -8.000000)" fill="#3E3564">
            <g id="Menu">
                <g id="Home" transform="translate(46.000000, 8.000000)">
                    <path
                        d="M6.66098135,0.0632238892 C6.57018002,-0.0210746297 6.42981998,-0.0210746297 6.33901865,0.0632238892 L0.0749500706,5.90245683 C0.0041223952,5.96883511 -0.0190750973,6.07175577 0.016417897,6.16214741 C0.0519108912,6.25253905 0.138908573,6.31210126 0.235931425,6.31243544 L1.50721065,6.31243544 L1.50721065,11.7630181 C1.50721065,11.8938996 1.61320154,12 1.74394793,12 L5.05826993,12 L5.05826993,7.91206298 C5.05826993,7.78118151 5.16426082,7.67508112 5.29500722,7.67508112 L7.66238007,7.67508112 C7.79312646,7.67508112 7.89911736,7.78118151 7.89911736,7.91206298 L7.89911736,12 L11.2134394,12 C11.3441857,12 11.4501766,11.8938996 11.4501766,11.7630181 L11.4501766,6.31243544 L12.7640686,6.31243544 C12.8610914,6.31210126 12.9480891,6.25253905 12.9835821,6.16214741 C13.0190751,6.07175577 12.9958776,5.96883511 12.9250499,5.90245683 L6.66098135,0.0632238892 Z"
                        id="Path"></path>
                </g>
            </g>
        </g>
    </g>
</svg>
