<?xml version="1.0" encoding="UTF-8"?>
<svg width="15px" height="13px" viewBox="0 0 15 13" version="1.1" xmlns="http://www.w3.org/2000/svg" xmlns:xlink="http://www.w3.org/1999/xlink">
    <!-- Generator: Sketch 53.2 (72643) - https://sketchapp.com -->
    <title>organizer_icon</title>
    <desc>Created with Sketch.</desc>
    <g id="Mobile" stroke="none" stroke-width="1" fill="none" fill-rule="evenodd">
        <g id="Profile-(User)" transform="translate(-16.000000, -278.000000)" fill="#3E3564" fill-rule="nonzero">
            <g id="organizer_icon" transform="translate(16.000000, 278.000000)">
                <g id="three-buildings" transform="translate(0.000000, 0.935541)">
                    <path d="M4.05191753,11.9808244 L6.70008247,11.9808244 L6.70008247,9.30732824 L8.29184536,9.30732824 L8.29184536,11.9808244 L10.9400103,11.9808244 L10.9400103,0.0111755725 L4.05191753,0.0111755725 L4.05191753,11.9808244 Z M7.97916495,1.42180153 L9.57089691,1.42180153 L9.57089691,2.99331298 L7.97916495,2.99331298 L7.97916495,1.42180153 Z M7.97916495,3.94745038 L9.57089691,3.94745038 L9.57089691,5.51896183 L7.97916495,5.51896183 L7.97916495,3.94745038 Z M7.97916495,6.47303817 L9.57089691,6.47303817 L9.57089691,8.04454962 L7.97916495,8.04454962 L7.97916495,6.47303817 Z M5.421,1.42180153 L7.01273196,1.42180153 L7.01273196,2.99331298 L5.421,2.99331298 L5.421,1.42180153 Z M5.421,3.94745038 L7.01273196,3.94745038 L7.01273196,5.51896183 L5.421,5.51896183 L5.421,3.94745038 Z M5.421,6.47303817 L7.01273196,6.47303817 L7.01273196,8.04454962 L5.421,8.04454962 L5.421,6.47303817 Z" id="Shape"></path>
                    <path d="M11.5583196,1.08341985 L11.5583196,9.54687023 L12.5809485,9.54687023 L12.5809485,11.9808244 L14.9918969,11.9808244 L14.9918969,1.08341985 L11.5583196,1.08341985 Z M13.7454742,8.39722137 L12.2962887,8.39722137 L12.2962887,6.96650382 L13.7454433,6.96650382 L13.7454433,8.39722137 L13.7454742,8.39722137 Z M13.7454742,6.09780153 L12.2962887,6.09780153 L12.2962887,4.6671145 L13.7454433,4.6671145 L13.7454433,6.09780153 L13.7454742,6.09780153 Z M13.7454742,3.79841221 L12.2962887,3.79841221 L12.2962887,2.36772519 L13.7454433,2.36772519 L13.7454433,3.79841221 L13.7454742,3.79841221 Z" id="Shape"></path>
                    <path d="M0,11.9808244 L2.41094845,11.9808244 L2.41094845,9.54687023 L3.43357732,9.54687023 L3.43357732,1.08341985 L0,1.08341985 L0,11.9808244 Z M1.24645361,2.36772519 L2.69560825,2.36772519 L2.69560825,3.79841221 L1.24645361,3.79841221 L1.24645361,2.36772519 Z M1.24645361,4.6671145 L2.69560825,4.6671145 L2.69560825,6.09780153 L1.24645361,6.09780153 L1.24645361,4.6671145 Z M1.24645361,6.96644275 L2.69560825,6.96644275 L2.69560825,8.39712977 L1.24645361,8.39712977 L1.24645361,6.96644275 Z" id="Shape"></path>
                </g>
            </g>
        </g>
    </g>
</svg>