<?xml version="1.0" encoding="UTF-8"?>
<svg width="15px" height="16px" viewBox="0 0 15 16" version="1.1" xmlns="http://www.w3.org/2000/svg" xmlns:xlink="http://www.w3.org/1999/xlink">
    <!-- Generator: Sketch 53.2 (72643) - https://sketchapp.com -->
    <title>noun_Settings_696006</title>
    <desc>Created with Sketch.</desc>
    <g id="Mobile" stroke="none" stroke-width="1" fill="none" fill-rule="evenodd">
        <g id="Profile-(Organiser)" transform="translate(-16.000000, -237.000000)" fill="#3E3564" fill-rule="nonzero">
            <g id="Profile" transform="translate(16.000000, 3.000000)">
                <g id="noun_Settings_696006" transform="translate(0.000000, 234.000000)">
                    <path d="M14.4857579,6.49591326 L13.8571868,6.49591326 C13.3583688,6.49591326 13.1845696,6.24071928 13.1263715,6.10541082 C13.119057,6.08299191 13.1101523,6.060891 13.1026788,6.03815409 C13.1006117,6.03099912 13.0991806,6.02368515 13.0991806,6.02368515 L13.0972724,6.02384415 C13.0263535,5.81793997 12.9431906,5.61728277 12.8500101,5.42107756 C12.8481019,5.41646658 12.849056,5.41344559 12.8468298,5.40819861 C12.6564935,4.95234743 12.9099573,4.64182167 12.9959823,4.55357703 L13.0207881,4.52909112 C13.0214241,4.52829613 13.0244453,4.52559314 13.0244453,4.52559314 L13.0242863,4.52559314 L13.4062311,4.14335867 C13.7838826,3.76541718 13.5660373,3.43962748 13.4572737,3.31894697 L12.1734176,2.0350271 C11.808805,1.67060056 11.4874434,1.90687361 11.3855173,2.00116024 L11.353079,2.03375511 L11.3521249,2.0348681 L10.7809568,2.60551682 C10.7807978,2.60567582 10.7807978,2.60567582 10.7807978,2.60567582 C10.526539,2.8595978 10.1800536,2.68040552 10.1800536,2.68040552 L10.1800536,2.68120052 C9.97969957,2.57991792 9.7734621,2.49262727 9.56309033,2.41503558 C9.55211856,2.40724461 9.53081106,2.39802265 9.49789575,2.38768769 C8.96457231,2.21803537 8.97204584,1.80352403 8.97204584,1.80352403 L8.97204584,1.21681637 C8.97204584,0.631857714 8.50025972,0.494959261 8.18573564,0.46777037 L6.81633151,0.46777037 C6.50212545,0.494959261 6.03018032,0.631857714 6.03018032,1.21681637 C6.03018032,1.24368727 6.02906724,1.26308519 6.02811317,1.2864581 L6.02811317,1.91466458 C6.01109898,2.0345501 5.9301623,2.22550834 5.6025993,2.35223083 C5.59941908,2.35334383 5.59814699,2.35445682 5.59512578,2.35588782 C5.37314619,2.43061752 5.15752706,2.52029316 4.94667826,2.62078076 C4.93952275,2.62348375 4.93459341,2.62396075 4.92711988,2.62714073 C4.48809006,2.81269299 4.18342468,2.56656197 4.0969226,2.48324631 L3.7065502,2.09290287 C3.70591416,2.09226687 3.70575514,2.09194887 3.7051191,2.09163087 C3.32587748,1.71225839 3.01342054,1.87284775 2.86410906,1.99702625 L1.55449313,3.30686301 C1.44747861,3.42293255 1.20148834,3.75126624 1.50742582,4.05702201 C1.50774384,4.05734001 1.50774384,4.05749901 1.50822088,4.05829401 L2.06491896,4.61479178 C2.06523698,4.61479178 2.06523698,4.61495078 2.06523698,4.61495078 C2.38675755,4.9364475 2.1538062,5.40629062 2.1538062,5.40629062 L2.15619136,5.40692661 C2.05712741,5.61394379 1.96951226,5.82604894 1.89509504,6.04403707 C1.89382295,6.04753505 1.89191481,6.04960204 1.89064272,6.05357703 C1.73433475,6.45664041 1.36813204,6.49400527 1.25443906,6.49591326 L0.439665865,6.49591326 C0.269046887,6.50720221 0,6.57286895 0,6.8853027 L0,8.99363427 C0.0128799042,9.14770465 0.100177032,9.43946848 0.577528543,9.43946848 L1.24378531,9.43946848 C1.34746059,9.44105848 1.74117223,9.47063236 1.87156138,9.82424694 C1.87172039,9.82472394 1.87203842,9.82504194 1.87235644,9.82583694 C1.9572684,10.0842109 2.0598306,10.3351119 2.17908897,10.5777449 L2.17781688,10.5782219 C2.17781688,10.5782219 2.17972502,10.5812429 2.18258722,10.5850589 C2.19260492,10.6060468 2.20262262,10.6267167 2.21311736,10.6472277 C2.26479599,10.7741091 2.32235803,11.063647 1.98843459,11.3977047 C1.98811657,11.3978636 1.98811657,11.3981816 1.98748052,11.3986586 L1.43364464,11.9522944 C1.33553475,12.069159 1.21579935,12.2896911 1.44048212,12.5145162 C1.44048212,12.5145162 1.44048212,12.5145162 1.44048212,12.5146752 L2.9558585,14.0300981 L2.95617652,14.0300981 C2.95617652,14.0300981 3.25909279,14.2887901 3.63547221,13.9138696 L4.16338927,13.3859917 C4.31142866,13.2654702 4.59367348,13.1225298 4.97068894,13.3292289 C5.00614843,13.3483088 5.03445242,13.3597568 5.0556009,13.3645268 C5.20968272,13.4338505 5.36646773,13.4980862 5.52643296,13.553577 L5.52452482,13.555962 C5.52452482,13.555962 5.53263439,13.557552 5.54074396,13.559301 C5.58224587,13.5736109 5.62327075,13.5883979 5.66477267,13.6022308 C5.81376613,13.6693286 6.02811317,13.8303949 6.02811317,14.2132654 L6.02811317,14.9984042 C6.03002131,15.0895109 6.06595783,15.4003546 6.40671875,15.4677704 L8.37829816,15.4677704 C8.97411298,15.4677704 8.97204584,14.9255825 8.97204584,14.9255825 L8.97204584,14.1746285 C8.98190453,14.0289851 9.05091537,13.7291123 9.44033371,13.568046 C9.44526306,13.566297 9.44717119,13.564389 9.45178252,13.562004 C9.63893865,13.4971323 9.8219605,13.4220846 10.0014841,13.3381329 C10.0118198,13.3344759 10.0205654,13.3327269 10.0320142,13.3279569 C10.5146131,13.1258687 10.8793847,13.4290805 10.8793847,13.4290805 L11.3118951,13.8612408 L11.3120541,13.8612408 C11.3120541,13.8612408 11.7491758,14.3252009 12.1697603,13.9043296 C12.1707144,13.9033756 12.1713504,13.9033756 12.1721455,13.9024216 L13.4167259,12.6574566 C13.4172029,12.6572976 13.4172029,12.6572976 13.4172029,12.6572976 C13.7387235,12.3359599 13.6557196,12.0814019 13.5499772,11.9362355 L12.9727667,11.3592268 C12.7018117,11.0884509 12.720893,10.8281689 12.7746388,10.6693286 C12.7994445,10.6209928 12.8229782,10.572339 12.8460348,10.5236851 C12.8508051,10.5160532 12.8546214,10.5111242 12.8546214,10.5111242 L12.8519182,10.5100112 C12.9414415,10.320802 13.0215831,10.1276177 13.090912,9.92950452 C13.0931381,9.92378055 13.0958413,9.92075956 13.0980675,9.91424058 C13.29063,9.42849753 13.8341302,9.44010448 13.8341302,9.44010448 L14.373496,9.44010448 C14.516129,9.4354935 15,9.36966776 15,8.68183651 L15,7.21872437 C15,6.61802477 14.6603522,6.5111772 14.4857579,6.49591326 Z M7.49833038,11.2940371 C5.66509069,11.2940371 4.17324796,9.80182803 4.17324796,7.96761137 C4.17324796,6.13371271 5.66509069,4.64166267 7.49833038,4.64166267 C9.33379623,4.64166267 10.826911,6.13371271 10.826911,7.96761137 C10.826752,9.80182803 9.33379623,11.2940371 7.49833038,11.2940371 Z" id="Shape"></path>
                </g>
            </g>
        </g>
    </g>
</svg>