<?xml version="1.0" encoding="UTF-8"?>
<svg width="17px" height="17px" viewBox="0 0 17 17" version="1.1" xmlns="http://www.w3.org/2000/svg"
     xmlns:xlink="http://www.w3.org/1999/xlink">
    <!-- Generator: Sketch 52.3 (67297) - http://www.bohemiancoding.com/sketch -->
    <title>User</title>
    <desc>Created with Sketch.</desc>
    <g id="Desktop" stroke="none" stroke-width="1" fill="none" fill-rule="evenodd">
        <g id="Homepage-Mobile-1" transform="translate(-287.000000, -14.000000)" fill="#3E3564" fill-rule="nonzero">
            <g id="Header" transform="translate(16.000000, 14.000000)">
                <g id="User" transform="translate(271.000000, 0.000000)">
                    <path
                        d="M10.9460432,8.48984468 C12.2098321,7.65710872 13.0455635,6.2353644 13.0455635,4.61051374 C13.0659472,2.07168459 10.9664269,0 8.41846523,0 C5.8705036,0 3.77098321,2.07168459 3.77098321,4.63082437 C3.77098321,6.27598566 4.64748201,7.71804062 5.93165468,8.55077658 C2.58872902,9.56630824 0.142685851,12.6129032 0,16.2891278 C0,16.4922342 0.0611510791,16.6750299 0.20383693,16.7968937 C0.326139089,16.9390681 0.509592326,17 0.713429257,17 L16.2865707,17 C16.4904077,17 16.6738609,16.9187575 16.7961631,16.7968937 C16.9184652,16.6547192 17,16.4719235 17,16.2891278 C16.8573141,12.572282 14.3501199,9.50537634 10.9460432,8.48984468 Z M8.41846523,1.38112306 C10.2122302,1.38112306 11.6594724,2.82317802 11.6594724,4.61051374 C11.6594724,6.39784946 10.2122302,7.83990442 8.41846523,7.83990442 C6.62470024,7.83990442 5.17745803,6.39784946 5.17745803,4.61051374 C5.17745803,2.82317802 6.62470024,1.38112306 8.41846523,1.38112306 Z M1.4676259,15.6188769 C1.93645084,12.1457587 4.91247002,9.52568698 8.5,9.52568698 C12.08753,9.52568698 15.0431655,12.1457587 15.5323741,15.6188769 C15.5323741,15.6188769 1.4676259,15.6188769 1.4676259,15.6188769 Z"
                        id="Shape"></path>
                </g>
            </g>
        </g>
    </g>
</svg>
