<?xml version="1.0" encoding="UTF-8"?>
<svg width="14px" height="14px" viewBox="0 0 14 14" version="1.1" xmlns="http://www.w3.org/2000/svg"
     xmlns:xlink="http://www.w3.org/1999/xlink">
    <!-- Generator: Sketch 52.3 (67297) - http://www.bohemiancoding.com/sketch -->
    <title>added</title>
    <desc>Created with Sketch.</desc>
    <g id="Desktop" stroke="none" stroke-width="1" fill="none" fill-rule="evenodd">
        <g id="Opportunity-Page" transform="translate(-419.000000, -551.000000)" fill="#3E3564" fill-rule="nonzero">
            <g id="Info" transform="translate(273.000000, 476.000000)">
                <g id="added" transform="translate(146.000000, 75.000000)">
                    <g id="Group">
                        <g id="Shape">
                            <g>
                                <path
                                    d="M10.3478261,10.3478261 L10.3478261,8.52173913 C10.3478261,8.18556583 10.6203484,7.91304348 10.9565217,7.91304348 C11.292695,7.91304348 11.5652174,8.18556583 11.5652174,8.52173913 L11.5652174,10.3478261 L13.3913043,10.3478261 C13.7274776,10.3478261 14,10.6203484 14,10.9565217 C14,11.292695 13.7274776,11.5652174 13.3913043,11.5652174 L11.5652174,11.5652174 L11.5652174,13.3913043 C11.5652174,13.7274776 11.292695,14 10.9565217,14 C10.6203484,14 10.3478261,13.7274776 10.3478261,13.3913043 L10.3478261,11.5652174 L8.52173913,11.5652174 C8.18556583,11.5652174 7.91304348,11.292695 7.91304348,10.9565217 C7.91304348,10.6203484 8.18556583,10.3478261 8.52173913,10.3478261 L10.3478261,10.3478261 Z M6.69600869,1.2173913 C3.67467564,1.2173913 1.2173913,3.67467564 1.2173913,6.69529566 C1.2173913,9.71591563 3.67467564,12.173913 6.69600869,12.173913 C6.70769443,12.173913 6.76701474,12.1906044 6.87397809,12.22396 C7.12340872,12.3018121 7.2932703,12.5327722 7.2932703,12.79407 C7.2932703,13.1239134 7.02587937,13.3913043 6.69603602,13.3913043 C3.00373597,13.3913043 0,10.3881639 0,6.69565217 C0,3.00390816 3.00373597,0 6.69603602,0 C10.3875684,0 13.3913043,3.00390816 13.3913043,6.69565217 C13.3913043,6.71428514 13.3902778,6.73403415 13.3881933,6.75489603 C13.3575374,7.06643049 13.095555,7.30389843 12.7825159,7.30389843 C12.4463938,7.30389843 12.173913,7.0314177 12.173913,6.69529566 C12.173913,3.67467564 9.71662872,1.2173913 6.69600869,1.2173913 Z M8.94686861,6.32767964 C9.06176253,6.40671147 9.13043478,6.54465785 9.13043478,6.69553677 C9.13043478,6.84497873 9.06044197,6.98292511 8.9435671,7.06411233 L6.07055881,9.06218003 C6.00650875,9.10672523 5.93123343,9.13043478 5.85463748,9.13043478 C5.77606065,9.13043478 5.72191523,9.10528829 5.67503318,9.07726796 C5.54957431,9.00254697 5.47826087,8.86316358 5.47826087,8.69360447 L5.47826087,4.69746907 C5.47826087,4.5286284 5.54957431,4.38852656 5.67437293,4.31452406 C5.80247299,4.23836614 5.95236338,4.24339543 6.07650163,4.32889348 L8.94686861,6.32767964 Z"></path>
                            </g>
                        </g>
                    </g>
                </g>
            </g>
        </g>
    </g>
</svg>
