<?xml version="1.0" encoding="UTF-8"?>
<svg width="15px" height="15px" viewBox="0 0 15 15" version="1.1" xmlns="http://www.w3.org/2000/svg" xmlns:xlink="http://www.w3.org/1999/xlink">
    <!-- Generator: Sketch 53.2 (72643) - https://sketchapp.com -->
    <title>added</title>
    <desc>Created with Sketch.</desc>
    <g id="Mobile" stroke="none" stroke-width="1" fill="none" fill-rule="evenodd">
        <g id="Learning-Playlist-Mobile-1" transform="translate(-160.000000, -353.000000)" fill="#3E3564" fill-rule="nonzero">
            <g id="added" transform="translate(160.000000, 353.000000)">
                <g id="Group">
                    <g id="Shape">
                        <g>
                            <path d="M11.0869565,11.0869565 L11.0869565,9.13043478 C11.0869565,8.77024911 11.3789448,8.47826087 11.7391304,8.47826087 C12.0993161,8.47826087 12.3913043,8.77024911 12.3913043,9.13043478 L12.3913043,11.0869565 L14.3478261,11.0869565 C14.7080118,11.0869565 15,11.3789448 15,11.7391304 C15,12.0993161 14.7080118,12.3913043 14.3478261,12.3913043 L12.3913043,12.3913043 L12.3913043,14.3478261 C12.3913043,14.7080118 12.0993161,15 11.7391304,15 C11.3789448,15 11.0869565,14.7080118 11.0869565,14.3478261 L11.0869565,12.3913043 L9.13043478,12.3913043 C8.77024911,12.3913043 8.47826087,12.0993161 8.47826087,11.7391304 C8.47826087,11.3789448 8.77024911,11.0869565 9.13043478,11.0869565 L11.0869565,11.0869565 Z M7.17429502,1.30434783 C3.93715248,1.30434783 1.30434783,3.93715248 1.30434783,7.17353107 C1.30434783,10.4099096 3.93715248,13.0434783 7.17429502,13.0434783 C7.18681546,13.0434783 7.25037293,13.0613618 7.36497652,13.0971 C7.63222363,13.1805129 7.81421817,13.4279702 7.81421817,13.7079322 C7.81421817,14.0613358 7.52772789,14.3478261 7.1743243,14.3478261 C3.21828854,14.3478261 0,11.1301756 0,7.17391304 C0,3.21847302 3.21828854,0 7.1743243,0 C11.1295375,0 14.3478261,3.21847302 14.3478261,7.17391304 C14.3478261,7.19387693 14.3467262,7.21503659 14.3444928,7.23738861 C14.3116472,7.57117552 14.0309517,7.82560546 13.6955527,7.82560546 C13.335422,7.82560546 13.0434783,7.53366183 13.0434783,7.17353107 C13.0434783,3.93715248 10.4106736,1.30434783 7.17429502,1.30434783 Z M9.58593065,6.77965676 C9.70903128,6.86433372 9.7826087,7.01213341 9.7826087,7.17378939 C9.7826087,7.33390578 9.70761639,7.48170548 9.58239333,7.56869178 L6.50417015,9.70947861 C6.43554509,9.75720561 6.35489296,9.7826087 6.27282587,9.7826087 C6.18863641,9.7826087 6.13062346,9.75566602 6.0803927,9.72564424 C5.94597248,9.64558604 5.86956522,9.4962467 5.86956522,9.31457622 L5.86956522,5.03300257 C5.86956522,4.85210185 5.94597248,4.70199275 6.07968528,4.62270435 C6.21693535,4.54110657 6.3775322,4.54649511 6.51053746,4.63810015 L9.58593065,6.77965676 Z"></path>
                        </g>
                    </g>
                </g>
            </g>
        </g>
    </g>
</svg>