<?xml version="1.0" encoding="UTF-8"?>
<svg width="14px" height="11px" viewBox="0 0 14 11" version="1.1" xmlns="http://www.w3.org/2000/svg" xmlns:xlink="http://www.w3.org/1999/xlink">
    <!-- Generator: Sketch 53.2 (72643) - https://sketchapp.com -->
    <title>noun_Arrow_2094738</title>
    <desc>Created with Sketch.</desc>
    <g id="Mobile" stroke="none" stroke-width="1" fill="none" fill-rule="evenodd">
        <g id="Learning-Playlist-Mobile-1" transform="translate(-291.000000, -788.000000)" fill="#F3047C" stroke="#F3047C" stroke-width="0.5">
            <g id="Group-9" transform="translate(248.000000, 783.000000)">
                <g id="noun_Arrow_2094738" transform="translate(43.000000, 5.000000)">
                    <path d="M9.13862453,0.999369349 C9.0320096,0.865015425 8.86230081,0.805516014 8.70028165,0.845687606 C8.5382625,0.885859197 8.41175832,1.01880268 8.3735325,1.18906892 C8.33530668,1.35933517 8.39192415,1.53768247 8.51977045,1.64972431 L11.677164,4.97173743 L1.24080869,4.97173743 C1.00685949,4.9847816 0.823529412,5.18793634 0.823529412,5.4341398 C0.823529412,5.68034327 1.00685949,5.883498 1.24080869,5.89654218 L11.677164,5.89654218 L8.51481962,9.21465317 C8.34947681,9.39662 8.34947681,9.6830413 8.51481962,9.86500813 C8.59679538,9.95142736 8.70813311,10 8.82424666,10 C8.94036021,10 9.05169794,9.95142736 9.1336737,9.86500813 L13.0448315,5.7547648 C13.1289433,5.66968004 13.1764706,5.55227705 13.1764706,5.42958732 C13.1764706,5.30689758 13.1289433,5.1894946 13.0448315,5.10440984 L9.13862453,0.999369349 Z" id="Path"></path>
                </g>
            </g>
        </g>
    </g>
</svg>