<?xml version="1.0" encoding="UTF-8"?>
<svg width="21px" height="17px" viewBox="0 0 21 17" version="1.1" xmlns="http://www.w3.org/2000/svg" xmlns:xlink="http://www.w3.org/1999/xlink">
    <!-- Generator: Sketch 53.2 (72643) - https://sketchapp.com -->
    <title>local</title>
    <desc>Created with Sketch.</desc>
    <g id="Mobile" stroke="none" stroke-width="1" fill="none" fill-rule="evenodd">
        <g id="Learning-Playlist-Mobile-1" transform="translate(-25.000000, -911.000000)" fill="#FFFFFF" fill-rule="nonzero">
            <g id="Similar" transform="translate(17.000000, 840.000000)">
                <g id="2">
                    <g id="local" transform="translate(8.000000, 71.000000)">
                        <path d="M20.5786691,15.5949425 L16.2648144,10.1297171 C15.9670503,9.75248636 15.5068727,9.53149532 15.0191738,9.53149532 L14.1448769,9.53149532 C13.0656389,11.192117 11.7565198,12.5897378 11.1673753,13.1857183 L10.9262883,13.4296055 C10.6649556,13.6939794 10.2316241,13.6952121 9.96875556,13.432338 L9.72619082,13.1898237 C9.18973516,12.6533825 8.1446179,11.5503042 7.17313829,10.1894524 C7.01444147,9.96718563 6.8659178,9.74811459 6.72515706,9.53149534 L5.06166712,9.53149534 C4.519386,9.53149534 4.01535906,9.80427628 3.72796841,10.2533634 L0.268234921,15.6592179 C-0.0722027263,16.1911885 0.319373702,16.8812071 0.96177998,16.8812071 L19.9309555,16.8812071 C20.609849,16.8812071 20.9930897,16.1200329 20.5786691,15.5949425 Z" id="Shape"></path>
                        <path d="M14.8094815,4.81020686 C14.811232,2.11201535 12.8940575,0.00976203593 10.4464389,0.00976203593 C8.00049904,0.00976203593 6.08338171,2.11201555 6.08338171,4.79532544 C6.08338171,7.78981125 9.73284826,11.5474322 10.4447456,12.2592121 C11.1532856,11.5424712 14.8094815,7.70541359 14.8094815,4.81020686 Z M8.55784637,4.52594908 C8.51713914,3.47396071 9.37826312,2.60864658 10.4464389,2.60860472 L10.4464389,2.61360719 C11.4898628,2.61448982 12.3355189,3.44028857 12.3364227,4.45927776 C12.3335529,5.50128952 11.4469177,6.33967177 10.3705625,6.29855891 C9.39845181,6.26139764 8.59462234,5.47539458 8.55784637,4.52594908 Z" id="Shape"></path>
                    </g>
                </g>
            </g>
        </g>
    </g>
</svg>