<?xml version="1.0" encoding="UTF-8"?>
<svg width="15px" height="15px" viewBox="0 0 15 15" version="1.1" xmlns="http://www.w3.org/2000/svg" xmlns:xlink="http://www.w3.org/1999/xlink">
    <!-- Generator: Sketch 53.2 (72643) - https://sketchapp.com -->
    <title>noun_Time_635973</title>
    <desc>Created with Sketch.</desc>
    <g id="Mobile" stroke="none" stroke-width="1" fill="none" fill-rule="evenodd">
        <g id="Learning-Playlist-Mobile-1" transform="translate(-125.000000, -785.000000)" fill="#3E3564" fill-rule="nonzero">
            <g id="noun_Time_635973" transform="translate(125.000000, 785.000000)">
                <path d="M7.5,0 C3.35,0 0,3.35 0,7.5 C0,11.65 3.35,15 7.5,15 C11.65,15 15,11.65 15,7.5 C15,3.35 11.65,0 7.5,0 Z M10.5333333,10.5833333 C10.3833333,10.7333333 10.2,10.8 10,10.8 C9.8,10.8 9.61666667,10.7333333 9.46666667,10.5833333 L6.7,7.81666667 L6.7,3.31666667 C6.7,2.9 7.03333333,2.56666667 7.45,2.56666667 C7.86666667,2.56666667 8.2,2.9 8.2,3.31666667 L8.2,7.2 L10.5333333,9.53333333 C10.8166667,9.81666667 10.8166667,10.3 10.5333333,10.5833333 Z" id="Shape"></path>
            </g>
        </g>
    </g>
</svg>