<?xml version="1.0" encoding="UTF-8"?>
<svg width="13px" height="13px" viewBox="0 0 13 13" version="1.1" xmlns="http://www.w3.org/2000/svg"
     xmlns:xlink="http://www.w3.org/1999/xlink">
    <!-- Generator: sketchtool 52.1 (67048) - http://www.bohemiancoding.com/sketch -->
    <title>8A9AF8A1-3355-42F3-AD5D-7A614679EB8C</title>
    <desc>Created with sketchtool.</desc>
    <g id="Desktop" stroke="none" stroke-width="1" fill="none" fill-rule="evenodd">
        <g id="Homepage-Mobile-2.1" transform="translate(-25.000000, -70.000000)" fill="#A59FC0" stroke="#DCD9EB"
           stroke-width="1.2">
            <g id="Search" transform="translate(16.000000, 53.000000)">
                <path d="M20.9036027,28.4091797 C20.9678679,28.4736331 21,28.5541987 21,28.6508789 C21,28.7475591 20.9678679,28.8281247 20.9036027,28.8925781 C20.832197,28.9641931 20.7500816,29 20.6572541,29 C20.5644267,29 20.4823113,28.9641931 20.4109056,28.8925781 L17.090555,25.5410156 C16.7121046,25.8704444 16.2836765,26.1282543 15.805258,26.3144531 C15.3268395,26.500652 14.8198664,26.59375 14.2843233,26.59375 C13.6916556,26.59375 13.1346991,26.4809582 12.6134372,26.2553711 C12.0921753,26.029784 11.6369705,25.7236347 11.2478092,25.3369141 C10.8586478,24.9501934 10.5533929,24.4954453 10.3320351,23.9726562 C10.1106772,23.4498672 10,22.891279 10,22.296875 C10,21.702471 10.1106772,21.1438828 10.3320351,20.6210938 C10.5533929,20.0983047 10.8586478,19.6435566 11.2478092,19.2568359 C11.6369705,18.8701153 12.0921753,18.563966 12.6134372,18.3383789 C13.1346991,18.1127918 13.6916556,18 14.2843233,18 C14.8698504,18 15.4232366,18.1127918 15.9444985,18.3383789 C16.4657605,18.563966 16.9209653,18.8701153 17.3101266,19.2568359 C17.6992879,19.6435566 18.006328,20.0983047 18.2312561,20.6210938 C18.4561842,21.1438828 18.5686465,21.702471 18.5686465,22.296875 C18.5686465,22.8196641 18.4793907,23.3155901 18.3008763,23.784668 C18.122362,24.2537458 17.8795861,24.6744773 17.5725414,25.046875 L20.9036027,28.4091797 Z M14.2843233,25.9169922 C14.7770229,25.9169922 15.2429384,25.8221038 15.6820837,25.6323242 C16.1212291,25.4425446 16.5032441,25.1829444 16.8281402,24.8535156 C17.1530364,24.5240869 17.4100932,24.1409527 17.5993184,23.7041016 C17.7885436,23.2672504 17.8831548,22.7981796 17.8831548,22.296875 C17.8831548,21.7955704 17.7885436,21.3264996 17.5993184,20.8896484 C17.4100932,20.4527973 17.1530364,20.0696631 16.8281402,19.7402344 C16.5032441,19.4108056 16.1212291,19.1512054 15.6820837,18.9614258 C15.2429384,18.7716462 14.7770229,18.6767578 14.2843233,18.6767578 C13.7844831,18.6767578 13.3149973,18.7716462 12.875852,18.9614258 C12.4367067,19.1512054 12.0546917,19.4108056 11.7297955,19.7402344 C11.4048994,20.0696631 11.1478426,20.4527973 10.9586173,20.8896484 C10.7693921,21.3264996 10.6747809,21.7955704 10.6747809,22.296875 C10.6747809,22.7981796 10.7693921,23.2672504 10.9586173,23.7041016 C11.1478426,24.1409527 11.4048994,24.5240869 11.7297955,24.8535156 C12.0546917,25.1829444 12.4367067,25.4425446 12.875852,25.6323242 C13.3149973,25.8221038 13.7844831,25.9169922 14.2843233,25.9169922 Z"
                      id="search_small"/>
            </g>
        </g>
    </g>
</svg>