<?xml version="1.0" encoding="UTF-8"?>
<svg width="16px" height="16px" viewBox="0 0 16 16" version="1.1" xmlns="http://www.w3.org/2000/svg"
     xmlns:xlink="http://www.w3.org/1999/xlink">
    <!-- Generator: sketchtool 52.6 (67491) - http://www.bohemiancoding.com/sketch -->
    <title>1BCE1166-4615-47C3-9B60-647F880E2ABD</title>
    <desc>Created with sketchtool.</desc>
    <g id="Mobile" stroke="none" stroke-width="1" fill="none" fill-rule="evenodd">
        <g id="Create-Playlist-Mobile-2.2" transform="translate(-279.000000, -458.000000)" fill-rule="nonzero"
           stroke="#C4C0D4" stroke-width="0.5">
            <g id="search" transform="translate(17.000000, 234.000000)">
                <g id="close" transform="translate(263.000000, 225.000000)">
                    <circle id="Oval-5" cx="7" cy="7" r="7"></circle>
                    <path
                        d="M7.16766735,6.99857156 L9.29830817,4.86632423 C9.34186354,4.81954621 9.34057836,4.7466509 9.29540117,4.70143964 C9.25022398,4.65622839 9.17738359,4.65494224 9.13064082,4.69853045 L7,6.83077779 L4.86935918,4.69853045 C4.82261641,4.65494224 4.74977602,4.65622839 4.70459883,4.70143964 C4.65942164,4.7466509 4.65813646,4.81954621 4.70169183,4.86632423 L6.83233265,6.99857156 L4.70169183,9.1308189 C4.67928039,9.15297511 4.66666667,9.18318917 4.66666667,9.21471579 C4.66666667,9.24624241 4.67928039,9.27645647 4.70169183,9.29861268 C4.74800875,9.34490688 4.82304225,9.34490688 4.86935918,9.29861268 L7,7.16636534 L9.13064082,9.29861268 C9.17695775,9.34490688 9.25199125,9.34490688 9.29830817,9.29861268 C9.32071961,9.27645647 9.33333333,9.24624241 9.33333333,9.21471579 C9.33333333,9.18318917 9.32071961,9.15297511 9.29830817,9.1308189 L7.16766735,6.99857156 Z"
                        id="Shape" fill="#FFFFFF"
                        transform="translate(7.000000, 7.000000) rotate(45.000000) translate(-7.000000, -7.000000) "></path>
                </g>
            </g>
        </g>
    </g>
</svg>
