<?xml version="1.0" encoding="UTF-8"?>
<svg width="8px" height="5px" viewBox="0 0 8 5" version="1.1" xmlns="http://www.w3.org/2000/svg" xmlns:xlink="http://www.w3.org/1999/xlink">
    <!-- Generator: Sketch 53.2 (72643) - https://sketchapp.com -->
    <title>noun_arrow, arrows, down arrow_1807788</title>
    <desc>Created with Sketch.</desc>
    <g id="Mobile" stroke="none" stroke-width="1" fill="none" fill-rule="evenodd">
        <g id="Create-Playlist-Mobile-3" transform="translate(-297.000000, -281.000000)" fill="#3E3564">
            <g id="Group-2" transform="translate(301.000000, 307.000000) scale(-1, 1) translate(-301.000000, -307.000000) translate(297.000000, 281.000000)">
                <g id="noun_arrow,-arrows,-down-arrow_1807788" transform="translate(4.000000, 2.500000) scale(-1, -1) translate(-4.000000, -2.500000) ">
                    <g id="Group">
                        <path d="M4.37499709,4.72129667 L7.82954982,1.26415381 C8.05596618,1.06229508 8.05142618,0.673961905 7.84740436,0.447019683 C7.64338436,0.220058254 7.28207891,0.201447302 7.07954982,0.429926032 L3.99999999,3.25202469 L0.920451636,0.429926032 C0.717924364,0.201485714 0.355088,0.220173492 0.151069818,0.447211746 C-0.0529483636,0.674153968 -0.0538392727,1.06799937 0.170451636,1.26426905 L3.62499709,4.7214119 C3.73077891,4.82656667 3.85417891,4.87592698 3.99999709,4.87746349 C4.12999709,4.87197048 4.28025164,4.81544619 4.37499709,4.72129667 Z" id="Path"></path>
                    </g>
                </g>
            </g>
        </g>
    </g>
</svg>