<?xml version="1.0" encoding="UTF-8"?>
<svg width="24px" height="27px" viewBox="0 0 24 27" version="1.1" xmlns="http://www.w3.org/2000/svg" xmlns:xlink="http://www.w3.org/1999/xlink">
    <!-- Generator: Sketch 53.2 (72643) - https://sketchapp.com -->
    <title>noun_Cup_1734759</title>
    <desc>Created with Sketch.</desc>
    <g id="Mobile" stroke="none" stroke-width="1" fill="none" fill-rule="evenodd">
        <g id="Create-Playlist-Mobile-1" transform="translate(-16.000000, -662.000000)" fill="#F3047C" fill-rule="nonzero">
            <g id="1" transform="translate(16.000000, 451.000000)">
                <g id="noun_Cup_1734759" transform="translate(0.000000, 211.000000)">
                    <path d="M19.9174877,13.0038023 C18.7536946,14.2357414 17.6564039,15.0228137 15.2623153,15.2965779 C15.8940887,14.6463878 16.6256158,13.9961977 17.2573892,13.2091255 C17.523399,12.9011407 18.0221675,12.21673 18.0221675,12.1825095 C18.5874384,11.2243346 18.9199507,10.1292776 18.9199507,8.93155894 L18.9199507,4.48288973 L21.2475369,4.48288973 L21.2475369,9.68441065 C21.2807882,9.75285171 21.3472906,11.4638783 19.9174877,13.0038023 Z M3.39162562,13.0038023 C1.92857143,11.4638783 1.99507389,9.75285171 1.99507389,9.68441065 L1.99507389,4.4486692 L4.3226601,4.4486692 L4.3226601,8.8973384 C4.3226601,10.095057 4.65517241,11.1901141 5.22044335,12.148289 C5.22044335,12.1825095 5.71921182,12.9011407 5.98522167,13.1749049 C6.65024631,13.9619772 7.34852217,14.6121673 7.98029557,15.2623574 C5.65270936,14.9885932 4.52216749,14.2015209 3.39162562,13.0038023 Z M23.2758621,9.58174905 L23.2758621,2.39543726 L18.953202,2.39543726 L18.953202,0 L11.637931,0 L4.3226601,0 L4.3226601,2.39543726 L0,2.39543726 L0,9.54752852 C0,9.88973384 0,12.2509506 1.8953202,14.338403 C3.72413793,16.3231939 5.95197044,17.3498099 9.84236453,17.418251 C10.1416256,17.9315589 10.3078818,18.513308 10.3078818,19.1292776 L10.3078818,23.5779468 L8.6453202,23.5779468 C7.9137931,23.5779468 7.31527094,24.1939163 7.31527094,24.9467681 L5.65270936,24.9467681 C4.92118227,24.9467681 4.3226601,25.5627376 4.3226601,26.3155894 L4.3226601,27 L18.953202,27 L18.953202,26.3155894 C18.953202,25.5627376 18.3546798,24.9467681 17.6231527,24.9467681 L15.9605911,24.9467681 C15.9605911,24.1939163 15.362069,23.5779468 14.6305419,23.5779468 L12.9679803,23.5779468 L12.9679803,19.1634981 C12.9679803,18.5475285 13.1342365,17.9657795 13.4334975,17.4524715 C17.3238916,17.3840304 19.5517241,16.3231939 21.3805419,14.3726236 C23.2758621,12.3193916 23.2758621,9.92395437 23.2758621,9.58174905 Z" id="Shape"></path>
                </g>
            </g>
        </g>
    </g>
</svg>