<?xml version="1.0" encoding="UTF-8"?>
<svg width="26px" height="28px" viewBox="0 0 26 28" version="1.1" xmlns="http://www.w3.org/2000/svg" xmlns:xlink="http://www.w3.org/1999/xlink">
    <!-- Generator: Sketch 53.2 (72643) - https://sketchapp.com -->
    <title>Shape</title>
    <desc>Created with Sketch.</desc>
    <g id="Mobile" stroke="none" stroke-width="1" fill="none" fill-rule="evenodd">
        <g id="Create-Playlist-Mobile-1" transform="translate(-17.000000, -414.000000)" fill="#F3047C" fill-rule="nonzero">
            <path d="M42.3578429,419.792015 C35.9024256,419.792015 33.0573094,417.15429 30.4822585,414.216136 C30.4732563,414.206194 30.4625394,414.198413 30.4535372,414.188903 C30.4441064,414.179393 30.4363902,414.168586 30.4265307,414.159508 C30.4201006,414.153889 30.4128131,414.150431 30.4059543,414.144811 C30.3883786,414.130114 30.3699456,414.117578 30.3510839,414.105042 C30.3339369,414.093803 30.3172186,414.082996 30.2996429,414.073486 C30.2799238,414.063112 30.2602048,414.054899 30.2400571,414.046685 C30.2211954,414.038904 30.2027623,414.031556 30.183472,414.025936 C30.1628956,414.019452 30.1418905,414.015562 30.1208854,414.011239 C30.101595,414.007781 30.0827333,414.00389 30.063443,414.002161 C30.0415805,414 30.0192894,414 29.997427,414 C29.9785653,414 29.9601323,414 29.9412706,414.001729 C29.9189795,414.00389 29.897117,414.007781 29.8748259,414.012536 C29.8563929,414.015994 29.8383886,414.019885 29.8199555,414.025072 C29.7989505,414.031124 29.7783741,414.039337 29.7577977,414.047982 C29.7393646,414.055763 29.7209316,414.063544 29.7029272,414.073054 C29.6844942,414.082564 29.6673472,414.093803 29.6493429,414.105907 C29.6309098,414.11801 29.6124768,414.130978 29.5953298,414.145243 C29.5888997,414.150863 29.5811835,414.154321 29.5751821,414.159941 C29.5653226,414.169018 29.5576064,414.179825 29.5481756,414.189335 C29.5387447,414.198845 29.5280278,414.206626 29.5190257,414.216568 C26.9435461,417.15429 24.0971438,419.792015 17.6430125,419.792015 C17.2876409,419.792015 17,420.08207 17,420.440424 C17,432.282953 23.5861632,439.316022 29.7496528,441.94856 C29.7642278,441.955044 29.7796601,441.957637 29.7946637,441.962392 C29.8092387,441.96758 29.8229563,441.971902 29.8379599,441.975793 C29.8915443,441.990058 29.945986,442 29.999999,442 L29.999999,442 L29.999999,442 C30.0540121,442 30.1084538,441.99049 30.1620382,441.975793 C30.1770418,441.971902 30.1907594,441.967147 30.2057631,441.962392 C30.2207667,441.957205 30.2357703,441.954611 30.2503453,441.94856 C36.4138349,439.316022 42.9999981,432.283385 42.9999981,420.440424 C43.0008554,420.08207 42.7127858,419.792015 42.3578429,419.792015 Z M34.8667467,424.724241 L29.7762307,432.018835 C29.7552256,432.048661 29.7299338,432.072869 29.7050706,432.098373 C29.6994978,432.103992 29.6973545,432.111773 29.6917817,432.117393 C29.6892096,432.119986 29.6853516,432.120851 29.6827795,432.123012 C29.6287665,432.173156 29.5670373,432.210764 29.5018787,432.239294 C29.486875,432.245778 29.4727288,432.2501 29.4572965,432.255288 C29.3908518,432.27863 29.3222638,432.294192 29.2519611,432.294192 C29.2515324,432.294192 29.2511038,432.294624 29.2506751,432.294624 C29.2506751,432.294624 29.2506751,432.294624 29.2502464,432.294624 C29.2498177,432.294624 29.2502464,432.294624 29.2498177,432.294624 C29.2493891,432.294624 29.2489604,432.294192 29.248103,432.294192 C29.1919466,432.294192 29.1357902,432.28425 29.0813485,432.268688 C29.0676308,432.264798 29.0543419,432.260475 29.041053,432.256152 C28.9857539,432.2367 28.9317409,432.21206 28.8824432,432.177046 C28.8820146,432.176614 28.8811572,432.176614 28.8807285,432.176182 C28.8438625,432.149813 28.8108545,432.120419 28.7812759,432.088863 L25.1932659,428.254608 C24.9493498,427.993948 24.9613527,427.583722 25.2198438,427.338191 C25.4783348,427.092661 25.8855761,427.104332 26.1286348,427.364992 L29.178229,430.623892 L33.8156355,423.978572 C34.0201135,423.685491 34.4213533,423.615463 34.7115663,423.821657 C35.0013507,424.026986 35.070796,424.431161 34.8667467,424.724241 Z" id="Shape"></path>
        </g>
    </g>
</svg>