<?xml version="1.0" encoding="UTF-8"?>
<svg width="25px" height="25px" viewBox="0 0 25 25" version="1.1" xmlns="http://www.w3.org/2000/svg" xmlns:xlink="http://www.w3.org/1999/xlink">
    <!-- Generator: Sketch 53.2 (72643) - https://sketchapp.com -->
    <title>Path</title>
    <desc>Created with Sketch.</desc>
    <g id="Mobile" stroke="none" stroke-width="1" fill="none" fill-rule="evenodd">
        <g id="Create-Playlist-Mobile-1" transform="translate(-16.000000, -538.000000)" fill="#F3047C">
            <g id="1" transform="translate(16.000000, 451.000000)">
                <g id="noun_Share_1133203" transform="translate(0.000000, 87.000000)">
                    <path d="M15.1430732,5.29799319 L5.16687857,5.29799319 C2.31329107,5.29799319 0,7.66998553 0,10.5959864 C0,13.5219873 2.31329107,15.8939796 5.16687857,15.8939796 L8.66680893,15.8939796 L10.9790589,24.1773475 C11.1460643,24.7756253 11.7665929,25.1252805 12.3650464,24.9583246 C12.3704875,24.9568068 12.3759161,24.955248 12.3813339,24.9536484 L14.1018768,24.445608 C14.6828089,24.2740705 15.0235875,23.6734939 14.872775,23.0869977 L13.0231536,15.8939796 L15.3242089,15.8939796 L21.9136036,20.8349005 C22.2227125,21.0666793 22.5986839,21.1919728 22.9850786,21.1919728 L24.1071429,21.1919728 C24.6002536,21.1919728 25,20.7923453 25,20.2993798 L25,0.892592892 C25,0.399627446 24.6002536,0 24.1071429,0 L22.9730929,0 C22.5940893,0 22.2249161,0.120550982 21.9189893,0.344209321 L15.1430732,5.29799319 Z" id="Path"></path>
                </g>
            </g>
        </g>
    </g>
</svg>