<?xml version="1.0" encoding="UTF-8"?>
<svg width="26px" height="24px" viewBox="0 0 26 24" version="1.1" xmlns="http://www.w3.org/2000/svg"
     xmlns:xlink="http://www.w3.org/1999/xlink">
    <!-- Generator: Sketch 62 (91390) - https://sketch.com -->
    <title>Attachment Copy</title>
    <desc>Created with Sketch.</desc>
    <g id="Appraiser-Desktop" stroke="none" stroke-width="1" fill="#3E3564" fill-rule="evenodd">
        <path d="M24.0199003,21.6943775 C21.416467,24.3344789 17.1952337,24.3344789 14.5918003,21.6943775 L1.39246667,8.30916169 C-0.427466767,6.46359549 -0.427466767,3.46214197 1.3925,1.61654197 C3.21243333,-0.229024225 6.17220033,-0.229024225 7.99213367,1.61654197 L21.191467,15.0017915 C22.2279337,16.0528563 22.227967,17.7750423 21.191467,18.826107 C20.1549337,19.8772394 18.4567003,19.8772056 17.4202337,18.826107 L6.577967,7.83108845 C6.40474573,7.66130831 6.33531196,7.40997259 6.39634169,7.17364273 C6.45737142,6.93731288 6.63937165,6.75274927 6.87241914,6.69085997 C7.10546664,6.62897067 7.35331159,6.69938237 7.52073367,6.87504338 L18.3630337,17.8700282 C18.8935003,18.4079662 19.7181337,18.408 20.248667,17.8700282 C20.7791337,17.3320901 20.7791337,16.4958085 20.248667,15.9578704 L7.04933367,2.57265465 C5.73540033,1.24018141 3.64923367,1.24018141 2.33526667,2.57265465 C1.02133333,3.90509408 1.02136667,6.02060958 2.3353,7.35308282 L15.5346003,20.7382986 C17.6320337,22.8652732 20.979667,22.8652732 23.0771003,20.7382986 C25.1745003,18.6113577 25.1745003,15.2165408 23.0771003,13.0896 L12.234767,2.09458141 C12.0625257,1.92458002 11.9938461,1.67372523 12.055009,1.43800913 C12.1161719,1.20229303 12.297709,1.01820551 12.5301535,0.956189498 C12.7625979,0.894173486 13.0099662,0.963829333 13.1776003,1.13850254 L24.0199337,12.1335211 C26.6233003,14.7736225 26.623367,19.0542761 24.0199003,21.6943775 Z"
              id="Path"/>
    </g>
</svg>