<?xml version="1.0" encoding="UTF-8"?>
<svg width="18px" height="18px" viewBox="0 0 18 18" version="1.1" xmlns="http://www.w3.org/2000/svg"
     xmlns:xlink="http://www.w3.org/1999/xlink">
    <!-- Generator: Sketch 52.3 (67297) - http://www.bohemiancoding.com/sketch -->
    <title>cross</title>
    <desc>Created with Sketch.</desc>
    <g id="Desktop" stroke="none" stroke-width="1" fill="none" fill-rule="evenodd">
        <g id="Register" transform="translate(-913.000000, -188.000000)" fill="#3E3564">
            <g transform="translate(488.000000, 166.000000)" id="cross">
                <g transform="translate(425.000000, 22.000000)">
                    <path
                            d="M17.485294,0.307803396 C17.224934,0.0425241509 16.802834,0.0425581132 16.5424873,0.307803396 L8.99999067,7.99261472 L1.45751467,0.307837358 C1.197158,0.0425581132 0.775068,0.0425581132 0.514708,0.307837358 C0.254351333,0.573082642 0.254354667,1.00314679 0.514711333,1.26842604 L8.05717733,8.9532 L0.514731333,16.6379434 C0.254384667,16.9032226 0.254374667,17.3332868 0.514728,17.598566 C0.775088,17.8638113 1.19719133,17.8638113 1.457538,17.598566 L8.99999067,9.91378868 L16.5424607,17.598566 C16.8028207,17.8638453 17.224914,17.8638453 17.4852707,17.598566 C17.7456307,17.3333208 17.7456273,16.9032566 17.4852707,16.6379774 L9.94279733,8.9532 L17.485294,1.26839208 C17.7456407,1.00314679 17.7456507,0.573082642 17.485294,0.307803396 Z"
                            id="Path"/>
                </g>
            </g>
        </g>
    </g>
</svg>
