<?xml version="1.0" encoding="UTF-8"?>
<svg width="14px" height="17px" viewBox="0 0 14 17" version="1.1" xmlns="http://www.w3.org/2000/svg"
     xmlns:xlink="http://www.w3.org/1999/xlink">
    <!-- Generator: sketchtool 52.3 (67297) - http://www.bohemiancoding.com/sketch -->
    <title>BD69B441-99A0-4925-8E96-D94036EC6048</title>
    <desc>Created with sketchtool.</desc>
    <g id="Desktop" stroke="none" stroke-width="1" fill="none" fill-rule="evenodd">
        <g id="Opportunity-Page-Mobile" transform="translate(-240.000000, -15.000000)" fill="#3E3564"
           fill-rule="nonzero" stroke="#3E3564" stroke-width="0.6">
            <g id="Header_Mobile">
                <g id="notifications" transform="translate(240.000000, 15.000000)">
                    <g id="Group">
                        <path
                                d="M11.8211188,11.5670778 C11.6567282,11.4641791 11.6058977,11.2459118 11.7075857,11.0795641 C11.8092738,10.9132164 12.0249733,10.8617809 12.189364,10.9646796 C12.2494516,11.0022908 12.2991463,11.0250752 12.3364004,11.0347579 C13.1040771,11.2342835 13.65,11.9369505 13.65,12.75 C13.65,13.7280043 12.8664983,14.5208333 11.9,14.5208333 L2.1,14.5208333 C1.13350169,14.5208333 0.35,13.7280043 0.35,12.75 C0.35,11.9357332 0.897542205,11.2322967 1.6667886,11.0339322 C1.70366911,11.0244219 1.75364867,11.0016495 1.81448856,10.9639163 C1.97929579,10.8617022 2.19478449,10.9140345 2.29579606,11.0808037 C2.39680762,11.2475729 2.34509101,11.465627 2.18028378,11.567841 C2.06342972,11.6403144 1.95063082,11.6917097 1.83964838,11.7203286 C1.37870584,11.8391911 1.05,12.261485 1.05,12.75 C1.05,13.3368025 1.52010102,13.8125 2.1,13.8125 L11.9,13.8125 C12.479899,13.8125 12.95,13.3368025 12.95,12.75 C12.95,12.2622135 12.6222669,11.8403823 12.1622575,11.720822 C12.050625,11.6918078 11.9375947,11.6399847 11.8211188,11.5670778 Z M12.3521257,11.2622858 C12.3521257,11.4578867 12.1954253,11.6164525 12.0021257,11.6164525 C11.808826,11.6164525 11.6521257,11.4578867 11.6521257,11.2622858 L11.6521257,6.80140712 C11.6521257,4.67830214 10.0933225,2.85256074 7.95056493,2.42232697 C7.76096174,2.38425747 7.63775635,2.19786248 7.67537792,2.0060021 C7.71299956,1.81414172 7.89720169,1.68946957 8.08680488,1.72753907 C10.5502778,2.2221677 12.3521257,4.33257418 12.3521257,6.80140712 L12.3521257,11.2622858 Z M5.89997877,1.73110428 C6.08937399,1.69198907 6.27424525,1.81564288 6.3129003,2.00729281 C6.35155528,2.19894273 6.22935621,2.38601483 6.03996106,2.42513004 C6.00855283,2.4316712 6.00855283,2.4316712 5.97646273,2.43855181 C3.86752955,2.89355992 2.34787432,4.70169062 2.34787432,6.80140712 L2.34787432,11.2622858 C2.34787432,11.4578867 2.19117398,11.6164525 1.99787432,11.6164525 C1.80457465,11.6164525 1.64787432,11.4578867 1.64787432,11.2622858 L1.64787432,6.80140712 C1.64787432,4.35998404 3.40521251,2.26905113 5.83049362,1.74579009 C5.86530217,1.73832635 5.86530217,1.73832635 5.89997877,1.73110428 Z M4.55,14.1666667 C4.55,13.9710658 4.70670034,13.8125 4.9,13.8125 C5.09329966,13.8125 5.25,13.9710658 5.25,14.1666667 C5.25,15.1446709 6.03350167,15.9375 7,15.9375 C7.96649833,15.9375 8.75,15.1446709 8.75,14.1666667 C8.75,13.9710658 8.90670032,13.8125 9.1,13.8125 C9.29329968,13.8125 9.45,13.9710658 9.45,14.1666667 C9.45,15.5358726 8.35309762,16.6458333 7,16.6458333 C5.64690238,16.6458333 4.55,15.5358726 4.55,14.1666667 Z M6.32144996,2.07483541 C6.32144996,2.27043626 6.16474957,2.42900208 5.97144996,2.42900208 C5.77815028,2.42900208 5.62144996,2.27043626 5.62144996,2.07483541 L5.62144996,1.79952858 C5.62144996,1.0040043 6.22961297,0.354166667 6.99538924,0.354166667 C7.75783617,0.354166667 8.36932859,1.00662684 8.36932859,1.79952858 L8.36932859,2.07483541 C8.36932859,2.27043626 8.21262827,2.42900208 8.01932859,2.42900208 C7.82602891,2.42900208 7.66932859,2.27043626 7.66932859,2.07483541 L7.66932859,1.79952858 C7.66932859,1.38967735 7.36269457,1.0625 6.99538924,1.0625 C6.62499152,1.0625 6.32144996,1.38684192 6.32144996,1.79952858 L6.32144996,2.07483541 Z"
                                id="Shape"/>
                    </g>
                </g>
            </g>
        </g>
    </g>
</svg>
