<?xml version="1.0" encoding="UTF-8"?>
<svg width="6px" height="6px" viewBox="0 0 6 6" version="1.1" xmlns="http://www.w3.org/2000/svg"
     xmlns:xlink="http://www.w3.org/1999/xlink">
    <!-- Generator: Sketch 53.2 (72643) - https://sketchapp.com -->
    <title>cross</title>
    <desc>Created with Sketch.</desc>
    <g id="Mobile" stroke="none" stroke-width="1" fill="none" fill-rule="evenodd">
        <g id="Create-Playlist-Mobile-1" transform="translate(-82.000000, -1406.000000)" fill="#A59FC0" stroke="#F3047C"
           stroke-width="0.5">
            <g id="Group-5" transform="translate(16.000000, 1383.000000)">
                <g id="cross" transform="translate(67.000000, 24.000000)">
                    <g id="Group">
                        <path
                                d="M3.88562089,0.0684007547 C3.82776311,0.00944981132 3.73396311,0.00945735849 3.6761083,0.0684007547 L1.99999793,1.7761366 L0.323892148,0.0684083019 C0.266035111,0.00945735849 0.172237333,0.00945735849 0.114379556,0.0684083019 C0.0565225185,0.127351698 0.0565232593,0.222921509 0.114380296,0.281872453 L1.79048385,1.9896 L0.114384741,3.69732075 C0.0565299259,3.7562717 0.0565277037,3.85184151 0.114384,3.91079245 C0.172241778,3.96973585 0.266042519,3.96973585 0.323897333,3.91079245 L1.99999793,2.20306415 L3.67610237,3.91079245 C3.73396015,3.9697434 3.82775867,3.9697434 3.8856157,3.91079245 C3.94347348,3.85184906 3.94347274,3.75627925 3.8856157,3.6973283 L2.20951052,1.9896 L3.88562089,0.281864906 C3.9434757,0.222921509 3.94347793,0.127351698 3.88562089,0.0684007547 L3.88562089,0.0684007547 Z"
                                id="Path"/>
                    </g>
                </g>
            </g>
        </g>
    </g>
</svg>
