<?xml version="1.0" encoding="UTF-8"?>
<svg width="18px" height="18px" viewBox="0 0 18 18" version="1.1" xmlns="http://www.w3.org/2000/svg"
     xmlns:xlink="http://www.w3.org/1999/xlink">
    <!-- Generator: Sketch 53.2 (72643) - https://sketchapp.com -->
    <title>noun_complete_1607173</title>
    <desc>Created with Sketch.</desc>
    <g id="Mobile" stroke="none" stroke-width="1" fill="none" fill-rule="evenodd">
        <g id="Learning-Playlist-Mobile-1" transform="translate(-26.000000, -722.000000)" fill-rule="nonzero">
            <g id="noun_complete_1607173" transform="translate(26.000000, 722.000000)">
                <path d="M9,0 C4.03921141,0 0,4.03918945 0,9 C0,13.9643921 4.03921141,18 9,18 C13.9644141,18 18,13.9643921 18,9 C18,4.03918945 13.9644141,0 9,0 Z"
                      id="Shape" fill="#F3047C"/>
                <path d="M13.714006,6.76759819 L8.0690112,12.7975676 C7.9415718,12.9303012 7.77681316,13 7.61207347,13 C7.44731482,13 7.27946363,12.9303012 7.15511677,12.7975676 L4.28288252,9.73114434 C4.09947369,9.53533545 4,9.27649182 4,8.99771684 C4,8.72226376 4.10258522,8.46009824 4.28599398,8.26428935 C4.66521967,7.85942457 5.28071199,7.86274647 5.65682615,8.26428935 L7.59340433,10.331818 C7.59340433,10.331818 7.61516597,10.331818 7.62450052,10.331818 C7.62761205,10.331818 7.62761205,10.331818 7.62761205,10.331818 L12.3400623,5.3040651 C12.719307,4.89920033 13.3347803,4.89920033 13.714006,5.3007432 C13.8974148,5.49655209 14,5.75871762 14,6.0341707 C14,6.3129254 13.8974148,6.57178931 13.714006,6.76759819 Z"
                      id="Path" fill="#FFFFFF"/>
            </g>
        </g>
    </g>
</svg>
