<?xml version="1.0" encoding="UTF-8"?>
<svg width="30px" height="30px" viewBox="0 0 30 30" version="1.1" xmlns="http://www.w3.org/2000/svg"
     xmlns:xlink="http://www.w3.org/1999/xlink">
    <!-- Generator: Sketch 46.1 (44463) - http://www.bohemiancoding.com/sketch -->
    <title>status-locked</title>
    <desc>Created with Sketch.</desc>
    <defs></defs>
    <g id="Symbols" stroke="none" stroke-width="1" fill="none" fill-rule="evenodd">
        <g id="status-locked">
            <g>
                <circle id="Oval-4" fill="#C4C4C4" cx="15" cy="15" r="15"></circle>
                <g id="Group" transform="translate(8.000000, 5.000000)" fill="#FFFFFF">
                    <path
                        d="M12.3494862,6.67646907 L12.3494862,5.34430584 C12.3494862,2.40122422 9.96391487,0.0156529179 7.02083326,0.0156529179 C4.07775165,0.0156529179 1.69218034,2.40122422 1.69218034,5.34430584 L1.69218034,6.67646907 L0.0269763054,6.67646907 L0.0269763054,17.318122 L14.0146902,17.318122 L14.0146902,6.67646907 L12.3494862,6.67646907 Z M3.35738438,5.34430584 C3.35738438,3.32441334 5.00094076,1.68085695 7.02083326,1.68085695 C9.04072576,1.68085695 10.6842821,3.32441334 10.6842821,5.34430584 L10.6842821,6.66081615 L3.35738438,6.66081615 L3.35738438,5.34430584 L3.35738438,5.34430584 Z M12.3494862,15.6529179 L1.69218034,15.6529179 L1.69218034,8.3416731 L12.3494862,8.3416731 L12.3494862,15.6529179 Z"
                        id="Shape"></path>
                    <path
                        d="M6.16125494,12.3554809 L6.16125494,13.9877139 L7.82645897,13.9877139 L7.82645897,12.3554809 C8.12886003,12.111362 8.32602018,11.7423528 8.32602018,11.3233875 C8.32602018,10.5877003 7.7295441,9.99122422 6.99385695,9.99122422 C6.25816981,9.99122422 5.66169373,10.5877003 5.66169373,11.3233875 C5.66169373,11.7423528 5.85885388,12.111362 6.16125494,12.3554809 Z"
                        id="Shape"></path>
                </g>
            </g>
        </g>
    </g>
</svg>
