<?xml version="1.0" encoding="UTF-8"?>
<svg width="13px" height="13px" viewBox="0 0 13 13" version="1.1" xmlns="http://www.w3.org/2000/svg"
     xmlns:xlink="http://www.w3.org/1999/xlink">
    <!-- Generator: Sketch 58 (84663) - https://sketch.com -->
    <title>Group Copy</title>
    <desc>Created with Sketch.</desc>
    <g id="Desktop" stroke="none" stroke-width="1" fill="none" fill-rule="evenodd">
        <g id="My-Learning-Plan-Demo" transform="translate(-31.000000, -117.000000)" fill="#FFFFFF" fill-rule="nonzero"
           stroke="#A59FC0" stroke-width="0.8">
            <g id="Group-Copy" transform="translate(32.000000, 118.000000)">
                <path
                    d="M6.03996429,5.75238641 L9.66350309,2.12611543 C9.73757685,2.04656098 9.73539116,1.92258936 9.65855921,1.84569947 C9.58172725,1.76880959 9.45784904,1.76662225 9.37835453,1.84075186 L5.75481572,5.46702284 L2.13127692,1.84075186 C2.05178241,1.76662225 1.92790419,1.76880959 1.85107224,1.84569947 C1.77424028,1.92258936 1.7720546,2.04656098 1.84612835,2.12611543 L5.46966716,5.75238641 L1.84612835,9.37865739 C1.80801367,9.41633802 1.78656176,9.46772248 1.78656176,9.52133918 C1.78656176,9.57495588 1.80801367,9.62634033 1.84612835,9.66402096 C1.92489864,9.7427526 2.05250663,9.7427526 2.13127692,9.66402096 L5.75481572,6.03774998 L9.37835453,9.66402096 C9.45712482,9.7427526 9.58473281,9.7427526 9.66350309,9.66402096 C9.70161778,9.62634033 9.72306969,9.57495588 9.72306969,9.52133918 C9.72306969,9.46772248 9.70161778,9.41633802 9.66350309,9.37865739 L6.03996429,5.75238641 Z"
                    id="Shape"
                    transform="translate(5.754816, 5.754816) rotate(45.000000) translate(-5.754816, -5.754816) "></path>
            </g>
        </g>
    </g>
</svg>
