<?xml version="1.0" encoding="UTF-8"?>
<svg width="10px" height="8px" viewBox="0 0 10 8" version="1.1" xmlns="http://www.w3.org/2000/svg" xmlns:xlink="http://www.w3.org/1999/xlink">
    <!-- Generator: Sketch 55.1 (78136) - https://sketchapp.com -->
    <title>Path Copy 3</title>
    <desc>Created with Sketch.</desc>
    <g id="Appraisal-mobile" stroke="none" stroke-width="1" fill="none" fill-rule="evenodd">
        <g id="invite-for-review-(1)" transform="translate(-288.000000, -477.000000)" stroke="#FFFFFF">
            <path d="M296.661487,478.003277 C296.596251,478.013323 296.536026,478.046282 296.490357,478.096931 C294.966222,479.724622 293.31465,481.615095 291.79123,483.252376 L289.487917,481.231602 C289.406184,481.158813 289.294152,481.138187 289.194238,481.177534 C289.094325,481.21688 289.021802,481.310184 289.004127,481.42212 C288.986453,481.534055 289.026329,481.647513 289.108657,481.719537 L291.624725,483.927602 C291.742273,484.031229 291.914472,484.022694 292.022486,483.907888 C293.607257,482.215468 295.333974,480.224938 296.906619,478.545436 C297.000828,478.451147 297.026747,478.302629 296.970647,478.178551 C296.914547,478.054474 296.789396,477.983521 296.661487,478.003277 L296.661487,478.003277 Z" id="Path-Copy-3"></path>
        </g>
    </g>
</svg>
