<?xml version="1.0" encoding="UTF-8"?>
<svg width="15px" height="15px" viewBox="0 0 15 15" version="1.1" xmlns="http://www.w3.org/2000/svg" xmlns:xlink="http://www.w3.org/1999/xlink">
    <!-- Generator: sketchtool 52.6 (67491) - http://www.bohemiancoding.com/sketch -->
    <title>078912C1-8B74-40EC-B259-7A1265D76069</title>
    <desc>Created with sketchtool.</desc>
    <g id="Mobile" stroke="none" stroke-width="1" fill="none" fill-rule="evenodd">
        <g id="Create-Playlist-Mobile-1" transform="translate(-27.000000, -1594.000000)" fill="#DCD9EB" stroke="#F4F3F9" stroke-width="1.4">
            <path d="M40.8860759,1607.30176 C40.9620257,1607.37793 41,1607.47314 41,1607.5874 C41,1607.70166 40.9620257,1607.79687 40.8860759,1607.87305 C40.8016873,1607.95768 40.7046419,1608 40.5949367,1608 C40.4852315,1608 40.3881861,1607.95768 40.3037975,1607.87305 L36.3797468,1603.91211 C35.9324872,1604.30143 35.4261632,1604.60612 34.8607595,1604.82617 C34.2953558,1605.04623 33.6962057,1605.15625 33.0632911,1605.15625 C32.3628657,1605.15625 31.7046444,1605.02295 31.0886076,1604.75635 C30.4725708,1604.48974 29.9346015,1604.12793 29.4746835,1603.6709 C29.0147656,1603.21386 28.6540097,1602.67644 28.3924051,1602.05859 C28.1308004,1601.44075 28,1600.7806 28,1600.07812 C28,1599.37565 28.1308004,1598.7155 28.3924051,1598.09766 C28.6540097,1597.47981 29.0147656,1596.94239 29.4746835,1596.48535 C29.9346015,1596.02832 30.4725708,1595.66651 31.0886076,1595.3999 C31.7046444,1595.1333 32.3628657,1595 33.0632911,1595 C33.7552777,1595 34.4092796,1595.1333 35.0253165,1595.3999 C35.6413533,1595.66651 36.1793226,1596.02832 36.6392405,1596.48535 C37.0991584,1596.94239 37.462024,1597.47981 37.7278481,1598.09766 C37.9936722,1598.7155 38.1265823,1599.37565 38.1265823,1600.07812 C38.1265823,1600.69597 38.0210981,1601.28206 37.8101266,1601.83643 C37.5991551,1602.39079 37.3122381,1602.88802 36.9493671,1603.32812 L40.8860759,1607.30176 Z M33.256315,1604.5 C33.8372986,1604.5 34.3866987,1604.3886 34.9045319,1604.1658 C35.4223651,1603.943 35.8728312,1603.63823 36.2559435,1603.25148 C36.6390559,1602.86474 36.9421732,1602.41494 37.1653046,1601.90208 C37.388436,1601.38922 37.5,1600.83853 37.5,1600.25 C37.5,1599.66147 37.388436,1599.11078 37.1653046,1598.59792 C36.9421732,1598.08506 36.6390559,1597.63526 36.2559435,1597.24852 C35.8728312,1596.86177 35.4223651,1596.557 34.9045319,1596.3342 C34.3866987,1596.1114 33.8372986,1596 33.256315,1596 C32.6669114,1596 32.1133013,1596.1114 31.5954681,1596.3342 C31.0776349,1596.557 30.6271688,1596.86177 30.2440565,1597.24852 C29.8609441,1597.63526 29.5578268,1598.08506 29.3346954,1598.59792 C29.111564,1599.11078 29,1599.66147 29,1600.25 C29,1600.83853 29.111564,1601.38922 29.3346954,1601.90208 C29.5578268,1602.41494 29.8609441,1602.86474 30.2440565,1603.25148 C30.6271688,1603.63823 31.0776349,1603.943 31.5954681,1604.1658 C32.1133013,1604.3886 32.6669114,1604.5 33.256315,1604.5 Z" id="magnifier---simple-line-icons"></path>
        </g>
    </g>
</svg>