<?xml version="1.0" encoding="UTF-8"?>
<svg width="27px" height="27px" viewBox="0 0 27 27" version="1.1" xmlns="http://www.w3.org/2000/svg" xmlns:xlink="http://www.w3.org/1999/xlink">
    <!-- Generator: Sketch 52.3 (67297) - http://www.bohemiancoding.com/sketch -->
    <title>add to playlist</title>
    <desc>Created with Sketch.</desc>
    <g id="Desktop" stroke="none" stroke-width="1" fill="none" fill-rule="evenodd">
        <g id="Search-Choose-Playlist" transform="translate(-264.000000, -2298.000000)" fill="#F3047C" fill-rule="nonzero" stroke="#FFFFFF">
            <g id="playlists" transform="translate(0.000000, 2292.000000)">
                <g id="add-to-playlist" transform="translate(265.000000, 7.000000)">
                    <g id="Group">
                        <g id="Shape">
                            <g>
                                <path d="M18.4782609,18.4782609 L18.4782609,15.2173913 C18.4782609,14.6170818 18.9649079,14.1304348 19.5652174,14.1304348 C20.1655268,14.1304348 20.6521739,14.6170818 20.6521739,15.2173913 L20.6521739,18.4782609 L23.9130435,18.4782609 C24.5133529,18.4782609 25,18.9649079 25,19.5652174 C25,20.1655268 24.5133529,20.6521739 23.9130435,20.6521739 L20.6521739,20.6521739 L20.6521739,23.9130435 C20.6521739,24.5133529 20.1655268,25 19.5652174,25 C18.9649079,25 18.4782609,24.5133529 18.4782609,23.9130435 L18.4782609,20.6521739 L15.2173913,20.6521739 C14.6170818,20.6521739 14.1304348,20.1655268 14.1304348,19.5652174 C14.1304348,18.9649079 14.6170818,18.4782609 15.2173913,18.4782609 L18.4782609,18.4782609 Z M11.9571584,2.17391304 C6.56192079,2.17391304 2.17391304,6.56192079 2.17391304,11.9558851 C2.17391304,17.3498493 6.56192079,21.7391304 11.9571584,21.7391304 C11.9780258,21.7391304 12.0839549,21.7689364 12.2749609,21.8285 C12.7203727,21.9675215 13.023697,22.3799503 13.023697,22.8465536 C13.023697,23.4355597 12.5462132,23.9130435 11.9572072,23.9130435 C5.36381423,23.9130435 0,18.5502926 0,11.9565217 C0,5.36412171 5.36381423,0 11.9572072,0 C18.5492292,0 23.9130435,5.36412171 23.9130435,11.9565217 C23.9130435,11.9897949 23.9112103,12.025061 23.907488,12.0623143 C23.8527453,12.6186259 23.3849196,13.0426758 22.8259212,13.0426758 C22.2257033,13.0426758 21.7391304,12.556103 21.7391304,11.9558851 C21.7391304,6.56192079 17.3511227,2.17391304 11.9571584,2.17391304 Z M15.9765511,11.2994279 C16.1817188,11.4405562 16.3043478,11.686889 16.3043478,11.9563157 C16.3043478,12.2231763 16.1793607,12.4695091 15.9706555,12.6144863 L10.8402836,16.1824643 C10.7259085,16.2620093 10.5914883,16.3043478 10.4547098,16.3043478 C10.314394,16.3043478 10.2177058,16.2594434 10.1339878,16.2094071 C9.90995413,16.0759767 9.7826087,15.8270778 9.7826087,15.5242937 L9.7826087,8.38833762 C9.7826087,8.08683642 9.90995413,7.83665458 10.1328088,7.70450725 C10.3615589,7.56851096 10.6292203,7.57749185 10.8508958,7.73016692 L15.9765511,11.2994279 Z"></path>
                            </g>
                        </g>
                    </g>
                </g>
            </g>
        </g>
    </g>
</svg>