<?xml version="1.0" encoding="UTF-8"?>
<svg width="14px" height="14px" viewBox="0 0 14 14" version="1.1" xmlns="http://www.w3.org/2000/svg" xmlns:xlink="http://www.w3.org/1999/xlink">
    <!-- Generator: Sketch 52.3 (67297) - http://www.bohemiancoding.com/sketch -->
    <title>date</title>
    <desc>Created with Sketch.</desc>
    <g id="Desktop" stroke="none" stroke-width="1" fill="none" fill-rule="evenodd" opacity="0.9">
        <g id="Opportunity-Page" transform="translate(-295.000000, -397.000000)" fill="#FFFFFF" fill-rule="nonzero">
            <g id="Top" transform="translate(0.000000, 100.000000)">
                <g id="date" transform="translate(295.000000, 297.000000)">
                    <g id="Group">
                        <path d="M11.9717949,1.4525 L11.1461538,1.4525 L11.1461538,0.14 L10.0692308,0.14 L10.0692308,1.4525 L3.93076923,1.4525 L3.93076923,0.14 L2.85384615,0.14 L2.85384615,1.4525 L2.02820513,1.4525 C0.937796776,1.4525 0.0538461538,2.31435186 0.0538461538,3.3775 L0.0538461538,11.935 C0.0538461538,12.9981481 0.937796776,13.86 2.02820513,13.86 L11.9717949,13.86 C13.0622032,13.86 13.9461538,12.9981481 13.9461538,11.935 L13.9461538,3.3775 C13.9461538,2.31435186 13.0622032,1.4525 11.9717949,1.4525 Z M2.04615385,2.5025 L2.87179487,2.5025 L2.87179487,3.64 L3.94871795,3.64 L3.94871795,2.5025 L10.0692308,2.5025 L10.0692308,3.64 L11.1461538,3.64 L11.1461538,2.5025 L11.9717949,2.5025 C12.467435,2.5025 12.8692308,2.89425084 12.8692308,3.3775 L12.8692308,4.445 L1.13076923,4.445 L1.13076923,3.3775 C1.13076923,2.89425084 1.53256497,2.5025 2.02820513,2.5025 L2.04615385,2.5025 Z M11.9717949,12.81 L2.02820513,12.81 C1.53256497,12.81 1.13076923,12.4182492 1.13076923,11.935 L1.13076923,5.495 L12.8692308,5.495 L12.8692308,11.935 C12.8692308,12.1670644 12.7746798,12.3896241 12.6063779,12.5537184 C12.438076,12.7178128 12.2098097,12.81 11.9717949,12.81 Z" id="Shape"></path>
                        <polygon id="Rectangle-path" points="5.83333333 6.51 8.18461538 6.51 8.18461538 8.80075 5.83333333 8.80075"></polygon>
                        <polygon id="Rectangle-path" points="2.49487179 6.51 4.84615385 6.51 4.84615385 8.80075 2.49487179 8.80075"></polygon>
                        <polygon id="Rectangle-path" points="9.17179487 6.51 11.5230769 6.51 11.5230769 8.80075 9.17179487 8.80075"></polygon>
                        <polygon id="Rectangle-path" points="5.83333333 9.485 8.18461538 9.485 8.18461538 11.77575 5.83333333 11.77575"></polygon>
                        <polygon id="Rectangle-path" points="2.49487179 9.485 4.84615385 9.485 4.84615385 11.77575 2.49487179 11.77575"></polygon>
                        <polygon id="Rectangle-path" points="9.17179487 9.485 11.5230769 9.485 11.5230769 11.77575 9.17179487 11.77575"></polygon>
                    </g>
                </g>
            </g>
        </g>
    </g>
</svg>