<?xml version="1.0" encoding="UTF-8"?>
<svg width="35px" height="35px" viewBox="0 0 35 35" version="1.1" xmlns="http://www.w3.org/2000/svg" xmlns:xlink="http://www.w3.org/1999/xlink">
    <!-- Generator: Sketch 52.3 (67297) - http://www.bohemiancoding.com/sketch -->
    <title>facebook</title>
    <desc>Created with Sketch.</desc>
    <g id="Symbols" stroke="none" stroke-width="1" fill="none" fill-rule="evenodd" opacity="0.203013393">
        <g id="Footer_Desktop" transform="translate(-42.000000, -227.000000)" fill="#3E3564" fill-rule="nonzero">
            <g id="Footer">
                <g id="facebook" transform="translate(42.000000, 227.000000)">
                    <path d="M17.5,0 C7.85053976,0 0,7.85053976 0,17.5 C0,27.1487553 7.85053976,35 17.5,35 C27.1487553,35 35,27.1487553 35,17.5 C35,7.85053976 27.1501651,0 17.5,0 Z M21.8520906,18.116088 L19.0049746,18.116088 C19.0049746,22.6648473 19.0049746,28.2639169 19.0049746,28.2639169 L14.7861113,28.2639169 C14.7861113,28.2639169 14.7861113,22.7191251 14.7861113,18.116088 L12.7806533,18.116088 L12.7806533,14.5295255 L14.7861113,14.5295255 L14.7861113,12.2096794 C14.7861113,10.5482156 15.5756062,7.95204624 19.0437445,7.95204624 L22.1700032,7.96402965 L22.1700032,11.4455611 C22.1700032,11.4455611 20.2702812,11.4455611 19.9009103,11.4455611 C19.5315395,11.4455611 19.0063844,11.6302465 19.0063844,12.422561 L19.0063844,14.5302304 L22.2207565,14.5302304 L21.8520906,18.116088 Z" id="Shape"></path>
                </g>
            </g>
        </g>
    </g>
</svg>