<?xml version="1.0" encoding="UTF-8"?>
<svg width="11px" height="11px" viewBox="0 0 11 11" version="1.1" xmlns="http://www.w3.org/2000/svg" xmlns:xlink="http://www.w3.org/1999/xlink">
    <!-- Generator: Sketch 52.3 (67297) - http://www.bohemiancoding.com/sketch -->
    <title>filter</title>
    <desc>Created with Sketch.</desc>
    <g id="Desktop" stroke="none" stroke-width="1" fill="none" fill-rule="evenodd">
        <g id="Search" transform="translate(-134.000000, -168.000000)" fill="#F3047C" stroke="#F3047C" stroke-width="0.2">
            <g id="Filter" transform="translate(16.000000, 159.000000)">
                <g id="filter" transform="translate(119.000000, 10.000000)">
                    <g id="Group" transform="translate(0.077891, 0.000000)">
                        <path d="M1.7938631,2.08654603 C1.7938631,1.89488592 1.7938631,1.70322581 1.7938631,1.51062156 C1.7938631,1.20660897 1.7938631,0.902596381 1.7938631,0.597639654 C1.7938631,0.526829268 1.7938631,0.456963021 1.7938631,0.386152636 C1.7938631,0.188827695 1.62014162,-0.000944138474 1.41620771,0.00849724626 C1.21132966,0.017938631 1.03855232,0.174665618 1.03855232,0.386152636 C1.03855232,0.577812746 1.03855232,0.769472856 1.03855232,0.962077105 C1.03855232,1.26608969 1.03855232,1.57010228 1.03855232,1.87505901 C1.03855232,1.94586939 1.03855232,2.01573564 1.03855232,2.08654603 C1.03855232,2.28387097 1.2122738,2.4736428 1.41620771,2.46420142 C1.62108576,2.45476003 1.7938631,2.29803304 1.7938631,2.08654603 Z" id="Path"></path>
                        <path d="M1.7938631,8.54445319 C1.7938631,8.37167585 1.7938631,8.19889851 1.7938631,8.0270653 C1.7938631,7.61636507 1.7938631,7.20472069 1.7938631,6.79402046 C1.7938631,6.29551534 1.7938631,5.79701023 1.7938631,5.29850511 C1.7938631,4.86797797 1.7938631,4.43745083 1.7938631,4.00597954 C1.7938631,3.79732494 1.79669552,3.5877262 1.7938631,3.3790716 C1.7938631,3.37623918 1.7938631,3.37340677 1.7938631,3.36963021 C1.7938631,3.17230527 1.62014162,2.98253344 1.41620771,2.99197482 C1.21132966,3.00141621 1.03855232,3.15814319 1.03855232,3.36963021 C1.03855232,3.54240755 1.03855232,3.71518489 1.03855232,3.8870181 C1.03855232,4.29771833 1.03855232,4.70936271 1.03855232,5.12006294 C1.03855232,5.61856806 1.03855232,6.11707317 1.03855232,6.61557828 C1.03855232,7.04610543 1.03855232,7.47663257 1.03855232,7.90810386 C1.03855232,8.11675846 1.03571991,8.3263572 1.03855232,8.5350118 C1.03855232,8.53784422 1.03855232,8.54067663 1.03855232,8.54445319 C1.03855232,8.74177813 1.2122738,8.93154996 1.41620771,8.92210858 C1.62108576,8.91266719 1.7938631,8.7559402 1.7938631,8.54445319 Z" id="Path"></path>
                        <path d="M0.387096774,2.46420142 C0.620298977,2.46420142 0.85350118,2.46420142 1.08670338,2.46420142 C1.45680566,2.46420142 1.82690795,2.46420142 2.19795437,2.46420142 C2.28387097,2.46420142 2.36884343,2.46420142 2.45476003,2.46420142 C2.65208497,2.46420142 2.84185681,2.29047994 2.83241542,2.08654603 C2.82297404,1.88166798 2.66624705,1.70889064 2.45476003,1.70889064 C2.22155783,1.70889064 1.98835563,1.70889064 1.75515342,1.70889064 C1.38505114,1.70889064 1.01494886,1.70889064 0.643902439,1.70889064 C0.557985838,1.70889064 0.473013375,1.70889064 0.387096774,1.70889064 C0.189771833,1.70889064 0,1.88261212 0.00944138474,2.08654603 C0.0188827695,2.29142408 0.175609756,2.46420142 0.387096774,2.46420142 Z" id="Path"></path>
                        <path d="M3.41778127,6.12745869 C3.65098348,6.12745869 3.88418568,6.12745869 4.11738788,6.12745869 C4.48749017,6.12745869 4.85759245,6.12745869 5.22863887,6.12745869 C5.31455547,6.12745869 5.39952793,6.12745869 5.48544453,6.12745869 C5.68276947,6.12745869 5.87254131,5.95373721 5.86309992,5.7498033 C5.85365854,5.54492526 5.69693155,5.37214792 5.48544453,5.37214792 C5.25224233,5.37214792 5.01904013,5.37214792 4.78583792,5.37214792 C4.41573564,5.37214792 4.04563336,5.37214792 3.67458694,5.37214792 C3.58867034,5.37214792 3.50369788,5.37214792 3.41778127,5.37214792 C3.22045633,5.37214792 3.0306845,5.54586939 3.04012589,5.7498033 C3.04956727,5.95468135 3.20629426,6.12745869 3.41778127,6.12745869 Z" id="Path"></path>
                        <path d="M4.83398899,5.7498033 C4.83398899,5.57136113 4.83398899,5.3938631 4.83398899,5.21542093 C4.83398899,4.7877262 4.83398899,4.36003147 4.83398899,3.93233674 C4.83398899,3.41683714 4.83398899,2.90133753 4.83398899,2.38583792 C4.83398899,1.94020456 4.83398899,1.4945712 4.83398899,1.04893784 C4.83398899,0.831785995 4.83776554,0.613690008 4.83398899,0.396538159 C4.83398899,0.393705744 4.83398899,0.390873328 4.83398899,0.387096774 C4.83398899,0.189771833 4.66026751,0 4.4563336,0.00944138474 C4.25145555,0.0188827695 4.07867821,0.175609756 4.07867821,0.387096774 C4.07867821,0.565538946 4.07867821,0.743036979 4.07867821,0.92147915 C4.07867821,1.34917388 4.07867821,1.77686861 4.07867821,2.20456334 C4.07867821,2.72006294 4.07867821,3.23556255 4.07867821,3.75106216 C4.07867821,4.19669552 4.07867821,4.64232887 4.07867821,5.08796223 C4.07867821,5.30511408 4.07490165,5.52321007 4.07867821,5.74036192 C4.07867821,5.74319434 4.07867821,5.74602675 4.07867821,5.7498033 C4.07867821,5.94712825 4.25239969,6.13690008 4.4563336,6.12745869 C4.66121164,6.11801731 4.83398899,5.96129032 4.83398899,5.7498033 Z" id="Path"></path>
                        <path d="M4.83398899,8.54445319 C4.83398899,8.10354052 4.83398899,7.66262785 4.83398899,7.22265932 C4.83398899,7.15940205 4.83398899,7.09708891 4.83398899,7.03383163 C4.83398899,6.83650669 4.66026751,6.64673485 4.4563336,6.65617624 C4.25145555,6.66561762 4.07867821,6.82234461 4.07867821,7.03383163 C4.07867821,7.4747443 4.07867821,7.91565696 4.07867821,8.35562549 C4.07867821,8.41888277 4.07867821,8.48119591 4.07867821,8.54445319 C4.07867821,8.74177813 4.25239969,8.93154996 4.4563336,8.92210858 C4.66121164,8.91266719 4.83398899,8.7559402 4.83398899,8.54445319 Z" id="Path"></path>
                        <path d="M7.87411487,3.77655389 C7.87411487,3.66420142 7.87411487,3.55279308 7.87411487,3.4404406 C7.87411487,3.17041699 7.87411487,2.89944925 7.87411487,2.62942565 C7.87411487,2.30369788 7.87411487,1.9779701 7.87411487,1.65224233 C7.87411487,1.36994493 7.87411487,1.08859166 7.87411487,0.806294256 C7.87411487,0.668450039 7.87694729,0.530605822 7.87411487,0.392761605 C7.87411487,0.390873328 7.87411487,0.388985051 7.87411487,0.387096774 C7.87411487,0.189771833 7.70039339,1.35308431e-16 7.49645948,0.00944138474 C7.29158143,0.0188827695 7.11880409,0.175609756 7.11880409,0.387096774 C7.11880409,0.499449253 7.11880409,0.610857592 7.11880409,0.723210071 C7.11880409,0.993233674 7.11880409,1.26420142 7.11880409,1.53422502 C7.11880409,1.85995279 7.11880409,2.18568057 7.11880409,2.51140834 C7.11880409,2.79370574 7.11880409,3.07505901 7.11880409,3.35735641 C7.11880409,3.49520063 7.11597168,3.63304485 7.11880409,3.77088906 C7.11880409,3.77277734 7.11880409,3.77466562 7.11880409,3.77655389 C7.11880409,3.97387884 7.29252557,4.16365067 7.49645948,4.15420928 C7.70133753,4.1447679 7.87411487,3.98804091 7.87411487,3.77655389 Z" id="Path"></path>
                        <path d="M7.87411487,8.54445319 C7.87411487,8.42926829 7.87411487,8.3140834 7.87411487,8.19889851 C7.87411487,7.92226593 7.87411487,7.64563336 7.87411487,7.36900079 C7.87411487,7.03194335 7.87411487,6.69583006 7.87411487,6.35877262 C7.87411487,6.06892211 7.87411487,5.7790716 7.87411487,5.49016522 C7.87411487,5.34948859 7.87694729,5.20786782 7.87411487,5.06719119 C7.87411487,5.06530291 7.87411487,5.06341463 7.87411487,5.06152636 C7.87411487,4.86420142 7.70039339,4.67442958 7.49645948,4.68387097 C7.29158143,4.69331235 7.11880409,4.85003934 7.11880409,5.06152636 C7.11880409,5.17671125 7.11880409,5.29189614 7.11880409,5.40708104 C7.11880409,5.68371361 7.11880409,5.96034618 7.11880409,6.23697876 C7.11880409,6.57403619 7.11880409,6.91014949 7.11880409,7.24720692 C7.11880409,7.53705744 7.11880409,7.82690795 7.11880409,8.11581432 C7.11880409,8.25649095 7.11597168,8.39811172 7.11880409,8.53878836 C7.11880409,8.54067663 7.11880409,8.54256491 7.11880409,8.54445319 C7.11880409,8.74177813 7.29252557,8.93154996 7.49645948,8.92210858 C7.70133753,8.91266719 7.87411487,8.7559402 7.87411487,8.54445319 Z" id="Path"></path>
                        <path d="M6.46734854,4.15420928 C6.70055075,4.15420928 6.93375295,4.15420928 7.16695515,4.15420928 C7.53705744,4.15420928 7.90715972,4.15420928 8.27820614,4.15420928 C8.36412274,4.15420928 8.4490952,4.15420928 8.5350118,4.15420928 C8.73233674,4.15420928 8.92210858,3.9804878 8.91266719,3.77655389 C8.90322581,3.57167585 8.74649882,3.39889851 8.5350118,3.39889851 C8.3018096,3.39889851 8.0686074,3.39889851 7.83540519,3.39889851 C7.46530291,3.39889851 7.09520063,3.39889851 6.72415421,3.39889851 C6.63823761,3.39889851 6.55326515,3.39889851 6.46734854,3.39889851 C6.2700236,3.39889851 6.08025177,3.57261998 6.08969315,3.77655389 C6.09913454,3.98143194 6.25586153,4.15420928 6.46734854,4.15420928 Z" id="Path"></path>
                    </g>
                </g>
            </g>
        </g>
    </g>
</svg>