<?xml version="1.0" encoding="UTF-8"?>
<svg width="35px" height="35px" viewBox="0 0 35 35" version="1.1" xmlns="http://www.w3.org/2000/svg" xmlns:xlink="http://www.w3.org/1999/xlink">
    <!-- Generator: Sketch 52.3 (67297) - http://www.bohemiancoding.com/sketch -->
    <title>google-plus</title>
    <desc>Created with Sketch.</desc>
    <g id="Symbols" stroke="none" stroke-width="1" fill="none" fill-rule="evenodd" opacity="0.203013393">
        <g id="Footer_Desktop" transform="translate(-117.000000, -227.000000)" fill="#3E3564" fill-rule="nonzero">
            <g id="Footer">
                <g id="google-plus" transform="translate(117.000000, 227.000000)">
                    <path d="M14.533172,20.3508454 C14.4268896,20.2862319 14.3179668,20.2161836 14.2037628,20.1455314 C13.8717131,20.0525362 13.519199,20.0042271 13.1581032,20 L13.1145341,20 C11.4549455,20 10,20.9184783 10,21.9667874 C10,23.1080918 11.2470019,24 12.837936,24 C14.9365167,24 16,23.3369565 16,22.0326087 C16,21.9094203 15.9841567,21.781401 15.9504896,21.6527778 C15.8085598,21.1467391 15.3009132,20.8309179 14.533172,20.3508454 Z" id="Shape"></path>
                    <path d="M13.436885,15 C13.4382587,15 13.4382587,15 13.4382587,15 C13.8510397,15 14.1992593,14.8484461 14.4691811,14.5606855 C14.8922645,14.111779 15.0797673,13.3751119 14.9685019,12.5930426 C14.7727571,11.1951656 13.6992517,10.0313339 12.5790422,10.0012789 L12.5343986,10 C12.1381014,10 11.7843871,10.1521934 11.5158391,10.438675 C11.0989371,10.8818263 10.9224234,11.5839621 11.0316284,12.3647525 C11.2280599,13.7613506 12.3242306,14.9680266 13.4210881,15 L13.436885,15 Z" id="Shape"></path>
                    <path d="M17.5,0 C7.85053976,0 0,7.85053976 0,17.5 C0,27.1487553 7.85053976,35 17.5,35 C27.1487553,35 35,27.1487553 35,17.5 C35,7.85053976 27.1501651,0 17.5,0 Z M15.4825586,26.0216104 C14.8213566,26.21264 14.1058769,26.3092121 13.3551519,26.3092121 C12.5191332,26.3092121 11.7155402,26.2133449 10.9662249,26.0237251 C9.51623298,25.6578788 8.44477564,24.9642512 7.94429227,24.0704302 C7.72859099,23.6841416 7.61933054,23.2724764 7.61933054,22.8460082 C7.61933054,22.4068517 7.72436156,21.961351 7.93160396,21.5200798 C8.72603319,19.8268952 10.8203094,18.6877669 13.1401555,18.6877669 C13.1634174,18.6877669 13.1852695,18.6877669 13.2064167,18.6877669 C13.0182067,18.3557561 12.9272738,18.0117619 12.9272738,17.650145 C12.9272738,17.4703939 12.9512406,17.2871183 12.9991743,17.1003182 C10.5658382,17.0453355 8.74506566,15.2633328 8.74506566,12.9138806 C8.74506566,11.2552364 10.0709941,9.63888665 11.9671917,8.98614356 C12.5346411,8.79017965 13.113369,8.69008298 13.6822283,8.69008298 L18.8858455,8.69008298 C19.0627769,8.69008298 19.219971,8.80498268 19.2749537,8.97345525 C19.3299364,9.14122291 19.2693144,9.32590832 19.1262185,9.42952953 L17.9624184,10.2718924 C17.8926327,10.3212358 17.8087489,10.3480222 17.7220454,10.3480222 L17.3054459,10.3480222 C17.8432893,10.9930114 18.1583823,11.9129139 18.1583823,12.9456014 C18.1583823,14.0854346 17.5817691,15.1632361 16.5321639,15.9844518 C15.7215218,16.6160477 15.689801,16.7901595 15.689801,17.1503666 C15.6996697,17.3484452 16.2642995,17.9948441 16.8874366,18.4354105 C18.3388383,19.4617538 18.8787964,20.4690647 18.8787964,22.1495609 C18.8780915,23.9054822 17.545114,25.4224402 15.4825586,26.0216104 Z M27.234049,17.0960888 C27.234049,17.3216587 27.0500685,17.5049343 26.8252034,17.5049343 L23.8681221,17.5049343 L23.8681221,20.4634254 C23.8681221,20.6889954 23.6841416,20.872271 23.4606864,20.872271 L22.6183235,20.872271 C22.3913438,20.872271 22.2080682,20.6889954 22.2080682,20.4634254 L22.2080682,17.5049343 L19.2531016,17.5049343 C19.0275316,17.5049343 18.844256,17.3230686 18.844256,17.0960888 L18.844256,16.2551357 C18.844256,16.0295658 19.0275316,15.8448804 19.2531016,15.8448804 L22.2080682,15.8448804 L22.2080682,12.8892089 C22.2080682,12.662934 22.3913438,12.4803633 22.6183235,12.4803633 L23.4606864,12.4803633 C23.6841416,12.4803633 23.8681221,12.662934 23.8681221,12.8892089 L23.8681221,15.8448804 L26.8244985,15.8448804 C27.0493636,15.8448804 27.2333441,16.028156 27.2333441,16.2537259 L27.2333441,17.0960888 L27.234049,17.0960888 Z" id="Shape"></path>
                </g>
            </g>
        </g>
    </g>
</svg>