<?xml version="1.0" encoding="UTF-8"?>
<svg width="18px" height="11px" viewBox="0 0 18 11" version="1.1" xmlns="http://www.w3.org/2000/svg" xmlns:xlink="http://www.w3.org/1999/xlink">
    <!-- Generator: Sketch 52.3 (67297) - http://www.bohemiancoding.com/sketch -->
    <title>google-plus</title>
    <desc>Created with Sketch.</desc>
    <g id="Desktop" stroke="none" stroke-width="1" fill="none" fill-rule="evenodd">
        <g id="Register" transform="translate(-637.000000, -770.000000)" fill="#FFFFFF">
            <g transform="translate(488.000000, 166.000000)" id="Join">
                <g transform="translate(111.000000, 590.000000)">
                    <g id="Group-2" transform="translate(38.000000, 8.000000)">
                        <g id="google-plus" transform="translate(0.000000, 6.000000)">
                            <polygon id="Path" points="15.6 4.4 15.6 2 14.4 2 14.4 4.4 12 4.4 12 5.6 14.4 5.6 14.4 8 15.6 8 15.6 5.6 18 5.6 18 4.4"></polygon>
                            <path d="M5.5,4.4 L5.5,6.6 L8.6119,6.6 C8.1576,7.8804 6.9344,8.8 5.5,8.8 C3.6806,8.8 2.2,7.3194 2.2,5.5 C2.2,3.6806 3.6806,2.2 5.5,2.2 C6.2887,2.2 7.0477,2.4827 7.6373,2.9964 L9.0827,1.3376 C8.0927,0.4752 6.8211,0 5.5,0 C2.4673,0 0,2.4673 0,5.5 C0,8.5327 2.4673,11 5.5,11 C8.5327,11 11,8.5327 11,5.5 L11,4.4 L5.5,4.4 Z" id="Path"></path>
                        </g>
                    </g>
                </g>
            </g>
        </g>
    </g>
</svg>