<?xml version="1.0" encoding="UTF-8"?>
<svg width="15px" height="16px" viewBox="0 0 15 16" version="1.1" xmlns="http://www.w3.org/2000/svg" xmlns:xlink="http://www.w3.org/1999/xlink">
    <!-- Generator: sketchtool 52.4 (67378) - http://www.bohemiancoding.com/sketch -->
    <title>ECA549D8-2934-4FA9-B151-068AE828F960</title>
    <desc>Created with sketchtool.</desc>
    <g id="Desktop" stroke="none" stroke-width="1" fill="none" fill-rule="evenodd">
        <g id="Profile-(User)" transform="translate(-16.000000, -276.000000)" fill="#3E3564" fill-rule="nonzero">
            <g id="Profile" transform="translate(16.000000, 3.000000)">
                <g id="History" transform="translate(0.000000, 273.000000)">
                    <g id="Group" transform="translate(0.000000, 0.467770)">
                        <g id="Shape">
                            <path d="M12.4101094,3.47682857 L11.784055,4.01716 C11.3152639,4.42176171 11.4266222,4.82214286 12.0342967,4.910128 L14.0885956,5.20757086 C14.3918278,5.251476 14.6431978,5.03285029 14.6537578,4.71979429 L14.7256961,2.58725143 C14.7470178,1.955184 14.3836461,1.77352057 13.9141761,2.178708 L13.2455078,2.75581829 C10.5829944,-0.507900572 5.85232778,-0.933605715 2.67926778,1.80497943 C-0.493792222,4.54356514 -0.907672222,9.40939371 1.75484111,12.6731126 C4.417355,15.9368314 9.14802167,16.3625366 12.3210817,13.6239509 C13.4257967,12.6705 14.2301572,11.4277566 14.6569983,10.0242446 C14.7469039,9.728624 14.586795,9.41401086 14.2993861,9.32153657 C14.0119767,9.22906229 13.7061028,9.39374571 13.6161972,9.68936686 C13.2514967,10.888552 12.5649106,11.9492423 11.6200994,12.764684 C8.90841722,15.1050663 4.86561111,14.7412611 2.59023944,11.9521023 C0.314867778,9.16294343 0.668567778,5.00462857 3.38025,2.66424629 C6.09193222,0.323864 10.1347383,0.687669714 12.4101094,3.47682857 Z M4.19852667,5.64090514 L3.80937,6.04118057 C3.69987444,6.15380457 3.70054167,6.33708971 3.81132056,6.45103371 L7.33927278,10.0797846 C7.44984556,10.1935166 7.63014778,10.1924583 7.73607167,10.0835074 L10.4855889,7.25543257 C10.5941628,7.14375714 10.5980978,6.96674286 10.48392,6.84930286 L10.0947633,6.44902743 C9.98526833,6.33640343 9.806985,6.33718171 9.70361944,6.4435 L7.53948222,8.66947029 L4.593375,5.63918857 C4.48480167,5.52751314 4.31270444,5.52346514 4.19852667,5.64090514 Z"></path>
                        </g>
                    </g>
                </g>
            </g>
        </g>
    </g>
</svg>