<?xml version="1.0" encoding="UTF-8"?>
<svg width="16px" height="16px" viewBox="0 0 16 16" version="1.1" xmlns="http://www.w3.org/2000/svg" xmlns:xlink="http://www.w3.org/1999/xlink">
    <!-- Generator: Sketch 52.3 (67297) - http://www.bohemiancoding.com/sketch -->
    <title>instagram</title>
    <desc>Created with Sketch.</desc>
    <g id="Desktop" stroke="none" stroke-width="1" fill="none" fill-rule="evenodd">
        <g id="Provider-Page" transform="translate(-964.000000, -557.000000)" fill="#3E3564">
            <g id="Contacts" transform="translate(856.000000, 434.000000)">
                <g id="instagram" transform="translate(108.000000, 123.000000)">
                    <path d="M11,0 L5,0 C2.239,0 0,2.239 0,5 L0,11 C0,13.761 2.239,16 5,16 L11,16 C13.761,16 16,13.761 16,11 L16,5 C16,2.239 13.761,0 11,0 Z M14.5,11 C14.5,12.93 12.93,14.5 11,14.5 L5,14.5 C3.07,14.5 1.5,12.93 1.5,11 L1.5,5 C1.5,3.07 3.07,1.5 5,1.5 L11,1.5 C12.93,1.5 14.5,3.07 14.5,5 L14.5,11 Z" id="Shape" fill-rule="nonzero"></path>
                    <path d="M8,3.91111111 C5.74191111,3.91111111 3.91111111,5.74191111 3.91111111,8 C3.91111111,10.2580889 5.74191111,12.0888889 8,12.0888889 C10.2580889,12.0888889 12.0888889,10.2580889 12.0888889,8 C12.0888889,5.74191111 10.2580889,3.91111111 8,3.91111111 Z M8,10.5555556 C6.59137778,10.5555556 5.44444444,9.40862222 5.44444444,8 C5.44444444,6.59035556 6.59137778,5.44444444 8,5.44444444 C9.40862222,5.44444444 10.5555556,6.59035556 10.5555556,8 C10.5555556,9.40862222 9.40862222,10.5555556 8,10.5555556 Z" id="Shape" fill-rule="nonzero"></path>
                    <circle id="Oval" cx="12.2666667" cy="3.73333333" r="1"></circle>
                </g>
            </g>
        </g>
    </g>
</svg>