<?xml version="1.0" encoding="UTF-8"?>
<svg width="16px" height="11px" viewBox="0 0 16 11" version="1.1" xmlns="http://www.w3.org/2000/svg" xmlns:xlink="http://www.w3.org/1999/xlink">
    <!-- Generator: Sketch 52.3 (67297) - http://www.bohemiancoding.com/sketch -->
    <title>joined</title>
    <desc>Created with Sketch.</desc>
    <g id="Desktop" stroke="none" stroke-width="1" fill="none" fill-rule="evenodd">
        <g id="Opportunity-Page" transform="translate(-274.000000, -553.000000)" fill="#3E3564">
            <g id="Info" transform="translate(273.000000, 476.000000)">
                <g id="joined" transform="translate(1.000000, 77.000000)">
                    <circle id="Oval" cx="8" cy="2" r="2"></circle>
                    <circle id="Oval" cx="12.5" cy="2.5" r="1.5"></circle>
                    <path d="M15.9920091,7.99942259 C15.6668591,6.12259091 14.5957767,5 12.7596354,5 C12.0519559,5 11.4781618,5.15786435 11,5.47359304 C11.0573794,5.52621449 11.1147588,5.57883594 11.1912647,5.63145739 C11.9754501,6.38569816 12.5109913,7.4732081 12.7596354,8.85890626 C12.7596354,8.91152771 12.7787619,8.96414916 12.7787619,8.99923013 C14.5575237,9.01677061 16.1258944,8.73612288 15.9920091,7.99942259 Z" id="Path"></path>
                    <circle id="Oval" cx="3.5" cy="2.5" r="1.5"></circle>
                    <path d="M4.82785871,5.62882096 C4.88523914,5.57641921 4.94261957,5.52401747 5,5.47161572 C4.52182974,5.15720524 3.92889863,5 3.24033346,5 C1.42328648,5 0.352185109,6.10043668 0.00790252448,7.98689956 C-0.125985147,8.72052402 1.4615401,9 3.24033346,9 C3.24033346,8.94759825 3.24033346,8.89519651 3.25946027,8.86026201 C3.48898199,7.48034934 4.02453268,6.39737991 4.82785871,5.62882096 Z" id="Path"></path>
                    <path d="M8,11 C5.79265306,11 3.85018776,10.5672131 4.00911673,9.4852459 C4.43292735,6.65245902 5.75733551,5 8,5 C10.2426645,5 11.5670727,6.67213115 11.9908833,9.4852459 C12.1498122,10.5672131 10.2073469,11 8,11 Z" id="Path"></path>
                </g>
            </g>
        </g>
    </g>
</svg>
