<?xml version="1.0" encoding="UTF-8"?>
<svg width="15px" height="11px" viewBox="0 0 15 11" version="1.1" xmlns="http://www.w3.org/2000/svg" xmlns:xlink="http://www.w3.org/1999/xlink">
    <!-- Generator: Sketch 52.3 (67297) - http://www.bohemiancoding.com/sketch -->
    <title>List2</title>
    <desc>Created with Sketch.</desc>
    <g id="Symbols" stroke="none" stroke-width="1" fill="none" fill-rule="evenodd">
        <g id="Menu_Mobile" transform="translate(-117.000000, -9.000000)" fill="#F3047C">
            <g id="Menu">
                <g id="List2" transform="translate(117.000000, 9.000000)">
                    <g id="Group">
                        <path d="M2.14571067,0.8 C2.87043483,0.8 3.458088,1.3818596 3.458088,2.0997376 C3.458088,2.8173356 2.87043483,3.3991952 2.14571067,3.3991952 C1.4209865,3.3991952 0.833333333,2.8173356 0.833333333,2.0997376 C0.833333333,1.3818596 1.4209865,0.8 2.14571067,0.8 Z" id="Path"></path>
                        <path d="M5.42013167,1.2892216 C8.03978917,1.2892216 10.6591633,1.2892216 13.278835,1.2892216 C14.3669143,1.2892216 14.3669143,2.9150136 13.278835,2.9150136 C10.6591775,2.9150136 8.03980333,2.9150136 5.42013167,2.9150136 C4.33205233,2.9150136 4.33205233,1.2892216 5.42013167,1.2892216 Z" id="Path"></path>
                        <path d="M2.14571067,4.502748 C2.87043483,4.502748 3.458088,5.0846076 3.458088,5.8024856 C3.458088,6.5200836 2.87043483,7.1019432 2.14571067,7.1019432 C1.4209865,7.1019432 0.833333333,6.5200836 0.833333333,5.8024856 C0.833333333,5.0846076 1.4209865,4.502748 2.14571067,4.502748 Z" id="Path"></path>
                        <path d="M5.42013167,4.991964 C8.03978917,4.991964 10.6591633,4.991964 13.278835,4.991964 C14.3669143,4.991964 14.3669143,6.617756 13.278835,6.617756 C10.6591775,6.617756 8.03980333,6.617756 5.42013167,6.617756 C4.33205233,6.617756 4.33205233,4.991964 5.42013167,4.991964 Z" id="Path"></path>
                        <path d="M2.14571067,8.205468 C2.87043483,8.205468 3.458088,8.7873276 3.458088,9.5052056 C3.458088,10.2228036 2.87043483,10.8046632 2.14571067,10.8046632 C1.4209865,10.8046632 0.833333333,10.2228036 0.833333333,9.5052056 C0.833333333,8.7873276 1.4209865,8.205468 2.14571067,8.205468 Z" id="Path"></path>
                        <path d="M5.42013167,8.694712 C8.03978917,8.694712 10.6591633,8.694712 13.278835,8.694712 C14.3669143,8.694712 14.3669143,10.320504 13.278835,10.320504 C10.6591775,10.320504 8.03980333,10.320504 5.42013167,10.320504 C4.33205233,10.320504 4.33205233,8.694712 5.42013167,8.694712 Z" id="Path"></path>
                    </g>
                </g>
            </g>
        </g>
    </g>
</svg>