<?xml version="1.0" encoding="UTF-8"?>
<svg width="22px" height="18px" viewBox="0 0 22 18" version="1.1" xmlns="http://www.w3.org/2000/svg" xmlns:xlink="http://www.w3.org/1999/xlink">
    <!-- Generator: Sketch 52.3 (67297) - http://www.bohemiancoding.com/sketch -->
    <title>local_icon</title>
    <desc>Created with Sketch.</desc>
    <g id="Symbols" stroke="none" stroke-width="1" fill="none" fill-rule="evenodd">
        <g id="Event_Card_Desktop_1" transform="translate(-53.000000, -20.000000)" fill="#FFFFFF" fill-rule="nonzero">
            <g id="local_icon" transform="translate(53.000000, 20.000000)">
                <path d="M21.5586057,16.5122921 L17.0393294,10.7255828 C16.727386,10.326162 16.2452952,10.0921715 15.7343725,10.0921715 L14.8184425,10.0921715 C13.6878121,11.8504768 12.3163541,13.3303106 11.6991551,13.9613488 L11.4465878,14.2195823 C11.1728106,14.4995076 10.7188443,14.5008128 10.4434582,14.2224755 L10.1893428,13.9656957 C9.6273416,13.3976991 8.53245685,12.2297339 7.5147163,10.788832 C7.34846249,10.5534907 7.19286626,10.3215331 7.04540263,10.0921715 L5.30269889,10.0921715 C4.73459485,10.0921715 4.20656664,10.3809984 3.90549072,10.8565024 L0.281008012,16.5803483 C-0.0756409513,17.1436113 0.334581973,17.8742193 1.00757903,17.8742193 L20.8800487,17.8742193 C21.5912704,17.8742193 21.9927606,17.0682702 21.5586057,16.5122921 Z" id="Shape"></path>
                <path d="M15.5146949,5.0931602 C15.5165287,2.23625155 13.5080602,0.0103362733 10.9438884,0.0103362733 C8.38147518,0.0103362733 6.37306655,2.23625176 6.37306655,5.07740341 C6.37306655,8.24803544 10.1963172,12.226693 10.9421144,12.9803422 C11.6843945,12.2214401 15.5146949,8.15867321 15.5146949,5.0931602 Z M8.96536287,4.79218138 C8.92271719,3.67831134 9.82484708,2.76209638 10.9438884,2.76205206 L10.9438884,2.76734879 C12.0369992,2.76828334 12.9229246,3.64265849 12.9238714,4.72158821 C12.9208649,5.82489478 11.992009,6.71259364 10.8643988,6.66906238 C9.84599713,6.62971515 9.00389007,5.79747661 8.96536287,4.79218138 Z" id="Shape"></path>
            </g>
        </g>
    </g>
</svg>