<?xml version="1.0" encoding="UTF-8"?>
<svg width="13px" height="17px" viewBox="0 0 13 17" version="1.1" xmlns="http://www.w3.org/2000/svg" xmlns:xlink="http://www.w3.org/1999/xlink">
    <!-- Generator: sketchtool 52.4 (67378) - http://www.bohemiancoding.com/sketch -->
    <title>F6F569A1-B0E2-4676-9C27-86A556ACDE11</title>
    <desc>Created with sketchtool.</desc>
    <g id="Desktop" stroke="none" stroke-width="1" fill="none" fill-rule="evenodd">
        <g id="Profile-(User)" transform="translate(-16.000000, -356.000000)" fill="#3E3564" fill-rule="nonzero" stroke="#3E3564" stroke-width="0.5">
            <g id="Group-5" transform="translate(17.000000, 352.000000)">
                <g id="Log-Out" transform="translate(0.000000, 5.000000)">
                    <g id="Group" transform="translate(0.000000, 0.129288)">
                        <path d="M1.22033898,0.0734148649 C0.551307254,0.0734148649 0,0.622858784 0,1.28963108 L0,13.4517932 C0,14.1185635 0.551307254,14.6680095 1.22033898,14.6680095 L4.47457627,14.6680095 C4.62127563,14.6700771 4.75772801,14.5932627 4.83168314,14.4669799 C4.90563827,14.3406971 4.90563827,14.184511 4.83168314,14.0582282 C4.75772801,13.9319454 4.62127563,13.855131 4.47457627,13.8571986 L1.22033898,13.8571986 C0.987946983,13.8571986 0.813559322,13.6834014 0.813559322,13.4517932 L0.813559322,1.28963108 C0.813559322,1.058025 0.987946983,0.884225676 1.22033898,0.884225676 L4.47457627,0.884225676 C4.62127563,0.886293361 4.75772801,0.809478934 4.83168314,0.683196142 C4.90563827,0.55691335 4.90563827,0.400727191 4.83168314,0.274444399 C4.75772801,0.148161607 4.62127563,0.0713471799 4.47457627,0.0734148649 L1.22033898,0.0734148649 Z M8.48516949,3.71572905 C8.33381163,3.73463905 8.2057873,3.83634702 8.15354942,3.97918214 C8.10131155,4.12201725 8.13363948,4.28197393 8.23728814,4.39351622 L10.4936441,6.96530676 L3.25423729,6.96530676 C3.24153241,6.96471263 3.22880657,6.96471263 3.21610169,6.96530676 C3.07075258,6.97206794 2.94006728,7.05560639 2.87328517,7.18444663 C2.80650306,7.31328686 2.81377274,7.46784955 2.89235517,7.58989885 C2.97093759,7.71194815 3.1088909,7.7829367 3.25423729,7.77611757 L10.4936441,7.77611757 L8.23728814,10.3415736 C8.08921478,10.5096185 8.1053337,10.7653501 8.2733437,10.9136064 C8.44135371,11.0618627 8.69801573,11.0468399 8.84745763,10.8800027 L11.6949153,7.63675946 C11.8317501,7.48318829 11.8317501,7.25190158 11.6949153,7.09833041 L8.84745763,3.85508716 C8.7581706,3.75048194 8.6218204,3.69803334 8.48516949,3.71572905 Z" id="Shape"></path>
                    </g>
                </g>
            </g>
        </g>
    </g>
</svg>