<?xml version="1.0" encoding="UTF-8"?>
<svg width="21px" height="14px" viewBox="0 0 21 14" version="1.1" xmlns="http://www.w3.org/2000/svg" xmlns:xlink="http://www.w3.org/1999/xlink">
    <!-- Generator: Sketch 52.3 (67297) - http://www.bohemiancoding.com/sketch -->
    <title>Menu</title>
    <desc>Created with Sketch.</desc>
    <g id="Desktop" stroke="none" stroke-width="1" fill="none" fill-rule="evenodd">
        <g id="Homepage-Mobile-1" transform="translate(-16.000000, -16.000000)" fill="#3E3564" fill-rule="nonzero">
            <g id="Header" transform="translate(16.000000, 14.000000)">
                <g id="Menu" transform="translate(0.000000, 2.000000)">
                    <path d="M0.841711957,0.0859410169 C0.597032149,0.0991444444 0.377719914,0.247057651 0.26640478,0.47395188 C0.155089646,0.700846108 0.168687117,0.972242398 0.302074119,1.18588769 C0.43546112,1.39953298 0.668368098,1.52296162 0.913043478,1.50966983 L20.0869565,1.50966983 C20.3339137,1.51330055 20.5636209,1.37841962 20.6881188,1.1566756 C20.8126166,0.934931577 20.8126166,0.66067927 20.6881188,0.438935249 C20.5636209,0.217191228 20.3339137,0.0823103024 20.0869565,0.0859410169 L0.913043478,0.0859410169 C0.889282448,0.0846529012 0.865472987,0.0846529012 0.841711957,0.0859410169 Z M0.841711957,6.25543254 C0.597032149,6.26863597 0.377719914,6.41654918 0.26640478,6.64344341 C0.155089646,6.87033763 0.168687117,7.14173392 0.302074119,7.35537921 C0.43546112,7.5690245 0.668368098,7.69245315 0.913043478,7.67916136 L20.0869565,7.67916136 C20.3339137,7.68279207 20.5636209,7.54791115 20.6881188,7.32616712 C20.8126166,7.1044231 20.8126166,6.8301708 20.6881188,6.60842677 C20.5636209,6.38668275 20.3339137,6.25180183 20.0869565,6.25543254 L0.913043478,6.25543254 C0.889282448,6.25414443 0.865472987,6.25414443 0.841711957,6.25543254 Z M0.841711957,12.4249241 C0.597032149,12.4381275 0.377719914,12.5860407 0.26640478,12.8129349 C0.155089646,13.0398292 0.168687117,13.3112254 0.302074119,13.5248707 C0.43546112,13.738516 0.668368098,13.8619447 0.913043478,13.8486529 L20.0869565,13.8486529 C20.3339137,13.8522836 20.5636209,13.7174027 20.6881188,13.4956586 C20.8126166,13.2739146 20.8126166,12.9996623 20.6881188,12.7779183 C20.5636209,12.5561743 20.3339137,12.4212934 20.0869565,12.4249241 L0.913043478,12.4249241 C0.889282448,12.423636 0.865472987,12.423636 0.841711957,12.4249241 Z" id="Shape"></path>
                </g>
            </g>
        </g>
    </g>
</svg>