<?xml version="1.0" encoding="UTF-8"?>
<svg width="14px" height="19px" viewBox="0 0 14 19" version="1.1" xmlns="http://www.w3.org/2000/svg" xmlns:xlink="http://www.w3.org/1999/xlink">
    <!-- Generator: Sketch 52.3 (67297) - http://www.bohemiancoding.com/sketch -->
    <title>navigation</title>
    <desc>Created with Sketch.</desc>
    <g id="Desktop" stroke="none" stroke-width="1" fill="none" fill-rule="evenodd">
        <g id="Opportunity-Page-Mobile" transform="translate(-227.000000, -1199.000000)" fill="#F3047C">
            <g id="Location" transform="translate(0.000000, 1089.000000)">
                <g id="navigation" transform="translate(234.000000, 119.500000) scale(1, -1) translate(-234.000000, -119.500000) translate(227.000000, 110.000000)">
                    <path d="M9.37680972,9.29086661 C8.95521304,8.90650189 8.27872842,8.90934594 7.8608989,9.29723975 C7.58234589,9.55583562 7.48534752,10.7890942 7.5699038,12.9970156 L10.3233646,12.9970156 L2.15385548,12.9970156 L2.15385548,0.999770431 C2.15385548,0.447612468 1.67169852,0 1.07692776,0 C0.482157002,0 3.64718744e-08,0.447612468 3.64718744e-08,0.999770431 L3.64718955e-08,13.996786 C-7.4259365e-05,14.2619628 0.113363584,14.5162984 0.315342817,14.7038066 C0.51732205,14.8913149 0.791285999,14.9966254 1.07692776,14.9965565 L10.3233646,14.9965565 L7.5699038,14.9965565 C7.50376229,16.9391369 7.50376229,18.0259653 7.5699038,18.2570417 C7.66911606,18.6036562 7.96073512,18.8743705 8.33410385,18.9664599 C8.70747259,19.0585494 9.10536958,18.9579005 9.37680972,18.7027054 L13.6845206,14.7036237 C13.8865137,14.5161885 14,14.2619202 14,13.996786 C14,13.7316518 13.8865137,13.4773836 13.6845206,13.2899483 L9.37680972,9.29086661 Z" id="Path"></path>
                </g>
            </g>
        </g>
    </g>
</svg>