<?xml version="1.0" encoding="UTF-8"?>
<svg width="22px" height="27px" viewBox="0 0 22 27" version="1.1" xmlns="http://www.w3.org/2000/svg" xmlns:xlink="http://www.w3.org/1999/xlink">
    <!-- Generator: Sketch 52.3 (67297) - http://www.bohemiancoding.com/sketch -->
    <title>notification</title>
    <desc>Created with Sketch.</desc>
    <g id="Symbols" stroke="none" stroke-width="1" fill="none" fill-rule="evenodd">
        <g id="Header_Desktop_3" transform="translate(-1265.000000, -37.000000)" fill="#3E3564" fill-rule="nonzero" stroke="#3E3564" stroke-width="0.6">
            <g id="notification" transform="translate(1265.000000, 37.000000)">
                <g id="Group">
                    <path d="M18.5760439,18.3712412 C18.3177157,18.2078139 18.2378392,17.8611541 18.3976348,17.5969548 C18.5574303,17.3327555 18.8963866,17.2510638 19.1547148,17.4144911 C19.2491383,17.4742265 19.3272299,17.5104136 19.385772,17.5257919 C20.5921212,17.8426855 21.45,18.9586861 21.45,20.25 C21.45,21.8033009 20.2187831,23.0625 18.7,23.0625 L3.3,23.0625 C1.78121694,23.0625 0.55,21.8033009 0.55,20.25 C0.55,18.9567528 1.41042347,17.83953 2.61923923,17.5244806 C2.67719432,17.509376 2.75573362,17.473208 2.85133916,17.4132789 C3.11032195,17.2509388 3.44894706,17.3340548 3.60767953,17.5989236 C3.76641198,17.8637923 3.68514302,18.2101134 3.42616023,18.3724534 C3.24253243,18.4875581 3.06527701,18.569186 2.89087603,18.6146396 C2.16653775,18.8034212 1.65,19.4741232 1.65,20.25 C1.65,21.1819805 2.38873017,21.9375 3.3,21.9375 L18.7,21.9375 C19.6112698,21.9375 20.35,21.1819805 20.35,20.25 C20.35,19.4752802 19.8349908,18.805313 19.1121189,18.6154232 C18.9366965,18.5693418 18.7590774,18.4870346 18.5760439,18.3712412 Z M19.4104832,17.8871598 C19.4104832,18.19782 19.1642398,18.4496598 18.8604832,18.4496598 C18.5567267,18.4496598 18.3104832,18.19782 18.3104832,17.8871598 L18.3104832,10.8022348 C18.3104832,7.43024457 15.8609354,4.53053765 12.4937449,3.84722519 C12.195797,3.78676187 12.0021886,3.49072277 12.0613082,3.18600333 C12.1204279,2.88128391 12.4098884,2.6832752 12.7078362,2.74373853 C16.5790079,3.52932517 19.4104832,6.88114722 19.4104832,10.8022348 L19.4104832,17.8871598 Z M9.27139521,2.74940091 C9.56901627,2.68727676 9.85952825,2.88366811 9.9202719,3.18805328 C9.98101544,3.49243845 9.78898833,3.78955296 9.49136738,3.85167713 C9.44201159,3.86206603 9.44201159,3.86206603 9.39158429,3.87299405 C6.07754644,4.59565399 3.68951679,7.46739098 3.68951679,10.8022348 L3.68951679,17.8871598 C3.68951679,18.19782 3.44327339,18.4496598 3.13951679,18.4496598 C2.83576017,18.4496598 2.58951679,18.19782 2.58951679,17.8871598 L2.58951679,10.8022348 C2.58951679,6.92468053 5.35104823,3.60378709 9.16220426,2.77272543 C9.21690341,2.76087126 9.21690341,2.76087126 9.27139521,2.74940091 Z M7.15,22.5 C7.15,22.1893398 7.39624339,21.9375 7.7,21.9375 C8.00375661,21.9375 8.25,22.1893398 8.25,22.5 C8.25,24.0533009 9.48121691,25.3125 11,25.3125 C12.5187831,25.3125 13.75,24.0533009 13.75,22.5 C13.75,22.1893398 13.9962434,21.9375 14.3,21.9375 C14.6037566,21.9375 14.85,22.1893398 14.85,22.5 C14.85,24.6746212 13.1262963,26.4375 11,26.4375 C8.87370374,26.4375 7.15,24.6746212 7.15,22.5 Z M9.93370708,3.29532683 C9.93370708,3.605987 9.68746361,3.85782683 9.38370708,3.85782683 C9.07995044,3.85782683 8.83370708,3.605987 8.83370708,3.29532683 L8.83370708,2.8580748 C8.83370708,1.59459506 9.78939181,0.5625 10.9927545,0.5625 C12.1908854,0.5625 13.1518021,1.59876028 13.1518021,2.8580748 L13.1518021,3.29532683 C13.1518021,3.605987 12.9055587,3.85782683 12.6018021,3.85782683 C12.2980454,3.85782683 12.0518021,3.605987 12.0518021,3.29532683 L12.0518021,2.8580748 C12.0518021,2.20713461 11.5699486,1.6875 10.9927545,1.6875 C10.410701,1.6875 9.93370708,2.20263129 9.93370708,2.8580748 L9.93370708,3.29532683 Z" id="Shape"></path>
                </g>
            </g>
        </g>
    </g>
</svg>