<?xml version="1.0" encoding="UTF-8"?>
<svg width="20px" height="20px" viewBox="0 0 20 20" version="1.1" xmlns="http://www.w3.org/2000/svg" xmlns:xlink="http://www.w3.org/1999/xlink">
    <!-- Generator: Sketch 52.3 (67297) - http://www.bohemiancoding.com/sketch -->
    <title>online</title>
    <desc>Created with Sketch.</desc>
    <g id="Desktop" stroke="none" stroke-width="1" fill="none" fill-rule="evenodd">
        <g id="Homepage3" transform="translate(-38.000000, -532.000000)" fill="#FFFFFF">
            <g id="online" transform="translate(38.000000, 532.000000)">
                <g id="Group">
                    <path d="M15.85,14.525 L20,13.5 L8.95,8.95 L13.5,20 L14.55,15.85 L17.65,18.95 C17.825,19.125 18.1,19.125 18.25,18.95 L18.95,18.25 C19.125,18.075 19.125,17.8 18.95,17.65 L15.85,14.525 Z" id="Path"></path>
                    <path d="M11.15,16.525 C11.225,16.425 11.3,16.325 11.35,16.225 L10.825,14.95 C10.25,16.15 9.55,16.85 8.95,16.85 C8.325,16.85 7.6,16.1 7.025,14.85 C6.75,14.275 6.525,13.625 6.375,12.9 C7.2,13.025 8.075,13.075 8.975,13.075 C9.35,13.075 9.725,13.075 10.075,13.05 L9.65,12 C9.425,12 9.2,12 8.975,12 C8,12 7.05,11.925 6.15,11.775 C6,10.875 5.925,9.925 5.925,8.95 C5.925,7.975 6,7.025 6.15,6.125 C7.05,5.975 8,5.9 8.975,5.9 C9.95,5.9 10.9,5.975 11.8,6.125 C11.95,7.025 12.025,7.975 12.025,8.95 C12.025,9.175 12.025,9.4 12.025,9.6 L13.075,10.025 C13.1,9.675 13.1,9.3 13.1,8.925 C13.1,8.025 13.05,7.15 12.925,6.325 C13.625,6.5 14.275,6.725 14.875,6.975 C16.125,7.55 16.875,8.275 16.875,8.9 C16.875,9.525 16.175,10.225 15,10.775 L16.275,11.3 C16.375,11.225 16.475,11.175 16.575,11.1 C16.55,11.2 16.525,11.3 16.475,11.375 L17.475,11.775 C17.775,10.875 17.95,9.9 17.95,8.875 C17.9,4 13.9,0 8.95,0 C4,0 0,4 0,8.95 C0,13.9 4,17.9 8.95,17.9 C9.975,17.9 10.95,17.725 11.85,17.425 L11.45,16.425 C11.35,16.45 11.25,16.475 11.15,16.525 Z M14.525,3.375 C15.475,4.325 16.15,5.475 16.525,6.75 C15.6,6.075 14.275,5.55 12.7,5.2 C12.375,3.625 11.825,2.3 11.15,1.375 C12.4,1.75 13.55,2.425 14.525,3.375 Z M8.95,1.075 C9.575,1.075 10.3,1.825 10.875,3.075 C11.15,3.65 11.375,4.3 11.525,5.025 C10.7,4.9 9.825,4.85 8.925,4.85 C8.025,4.85 7.15,4.9 6.325,5.025 C6.5,4.325 6.725,3.675 6.975,3.075 C7.575,1.825 8.3,1.075 8.95,1.075 Z M3.375,3.375 C4.325,2.425 5.475,1.75 6.75,1.375 C6.075,2.3 5.55,3.625 5.2,5.2 C3.625,5.525 2.3,6.075 1.375,6.75 C1.75,5.5 2.425,4.35 3.375,3.375 Z M3.075,7.025 C3.65,6.75 4.3,6.525 5.025,6.375 C4.9,7.2 4.85,8.075 4.85,8.975 C4.85,9.875 4.9,10.75 5.025,11.575 C4.325,11.4 3.675,11.175 3.075,10.925 C1.825,10.35 1.075,9.625 1.075,9 C1.075,8.375 1.825,7.6 3.075,7.025 Z M3.375,14.525 C2.425,13.575 1.75,12.425 1.375,11.15 C2.3,11.825 3.625,12.35 5.2,12.7 C5.525,14.275 6.075,15.6 6.75,16.525 C5.5,16.15 4.325,15.475 3.375,14.525 Z" id="Shape" fill-rule="nonzero"></path>
                </g>
            </g>
        </g>
    </g>
</svg>