<?xml version="1.0" encoding="UTF-8"?>
<svg width="16px" height="13px" viewBox="0 0 16 13" version="1.1" xmlns="http://www.w3.org/2000/svg" xmlns:xlink="http://www.w3.org/1999/xlink">
    <!-- Generator: Sketch 52.3 (67297) - http://www.bohemiancoding.com/sketch -->
    <title>organization</title>
    <desc>Created with Sketch.</desc>
    <g id="Desktop" stroke="none" stroke-width="1" fill="none" fill-rule="evenodd">
        <g id="Playlist" transform="translate(-129.000000, -181.000000)" fill="#3E3564" fill-rule="nonzero">
            <g id="1" transform="translate(16.000000, 122.000000)">
                <g id="organization" transform="translate(113.000000, 59.000000)">
                    <g id="three-buildings">
                        <path d="M4.32204536,12.9792265 L7.14675464,12.9792265 L7.14675464,10.0829389 L8.84463505,10.0829389 L8.84463505,12.9792265 L11.6693443,12.9792265 L11.6693443,0.0121068702 L4.32204536,0.0121068702 L4.32204536,12.9792265 Z M8.51110928,1.54028499 L10.2089567,1.54028499 L10.2089567,3.24275573 L8.51110928,3.24275573 L8.51110928,1.54028499 Z M8.51110928,4.27640458 L10.2089567,4.27640458 L10.2089567,5.97887532 L8.51110928,5.97887532 L8.51110928,4.27640458 Z M8.51110928,7.01245802 L10.2089567,7.01245802 L10.2089567,8.71492875 L8.51110928,8.71492875 L8.51110928,7.01245802 Z M5.7824,1.54028499 L7.48024742,1.54028499 L7.48024742,3.24275573 L5.7824,3.24275573 L5.7824,1.54028499 Z M5.7824,4.27640458 L7.48024742,4.27640458 L7.48024742,5.97887532 L5.7824,5.97887532 L5.7824,4.27640458 Z M5.7824,7.01245802 L7.48024742,7.01245802 L7.48024742,8.71492875 L5.7824,8.71492875 L5.7824,7.01245802 Z" id="Shape"></path>
                        <path d="M12.3288742,1.17370483 L12.3288742,10.3424427 L13.4196784,10.3424427 L13.4196784,12.9792265 L15.9913567,12.9792265 L15.9913567,1.17370483 L12.3288742,1.17370483 Z M14.6618392,9.09698982 L13.1160412,9.09698982 L13.1160412,7.5470458 L14.6618062,7.5470458 L14.6618062,9.09698982 L14.6618392,9.09698982 Z M14.6618392,6.60595165 L13.1160412,6.60595165 L13.1160412,5.05604071 L14.6618062,5.05604071 L14.6618062,6.60595165 L14.6618392,6.60595165 Z M14.6618392,4.11494656 L13.1160412,4.11494656 L13.1160412,2.56503562 L14.6618062,2.56503562 L14.6618062,4.11494656 L14.6618392,4.11494656 Z" id="Shape"></path>
                        <path d="M0,12.9792265 L2.57167835,12.9792265 L2.57167835,10.3424427 L3.66248247,10.3424427 L3.66248247,1.17370483 L0,1.17370483 L0,12.9792265 Z M1.32955052,2.56503562 L2.87531546,2.56503562 L2.87531546,4.11494656 L1.32955052,4.11494656 L1.32955052,2.56503562 Z M1.32955052,5.05604071 L2.87531546,5.05604071 L2.87531546,6.60595165 L1.32955052,6.60595165 L1.32955052,5.05604071 Z M1.32955052,7.54697964 L2.87531546,7.54697964 L2.87531546,9.09689059 L1.32955052,9.09689059 L1.32955052,7.54697964 Z" id="Shape"></path>
                    </g>
                </g>
            </g>
        </g>
    </g>
</svg>