<?xml version="1.0" encoding="UTF-8"?>
<svg width="14px" height="14px" viewBox="0 0 14 14" version="1.1" xmlns="http://www.w3.org/2000/svg" xmlns:xlink="http://www.w3.org/1999/xlink">
    <!-- Generator: Sketch 52.3 (67297) - http://www.bohemiancoding.com/sketch -->
    <title>phone</title>
    <desc>Created with Sketch.</desc>
    <g id="Desktop" stroke="none" stroke-width="1" fill="none" fill-rule="evenodd">
        <g id="Provider-Page" transform="translate(-874.000000, -525.000000)" fill="#3E3564">
            <g id="Contacts" transform="translate(856.000000, 434.000000)">
                <g id="phone" transform="translate(18.000000, 91.000000)">
                    <path d="M12.6487338,13.3484392 C12.3686883,13.7763314 11.8822935,14.0271648 11.3664202,13.997655 C10.850547,13.9681452 10.1872814,13.8943707 9.73036504,13.7763314 C7.69635048,13.2451549 5.58863974,11.9762332 3.80519219,10.1908899 C2.02174465,8.40554654 0.754170357,6.29559533 0.223557863,4.25941863 C0.105643976,3.80201662 0.0466870322,3.15280086 0.0024693244,2.63637924 C-0.0270091475,2.13471252 0.208818627,1.6478007 0.636256469,1.36745753 L2.44918249,0.157555437 C2.92083804,-0.152297538 3.55462518,0.0100064012 3.80519219,0.511673123 L5.27911579,3.35936951 C5.48546509,3.75775191 5.38229044,4.25941863 5.02854878,4.5397618 L3.70201754,5.57260505 C4.23263004,6.56118359 4.73376406,7.35794838 5.70655363,8.31701712 C6.60564702,9.21706624 7.38682653,9.74824277 8.40383381,10.2941742 L9.45031956,8.95147797 C9.73036504,8.59736029 10.2314991,8.47932106 10.6294584,8.70064461 L13.4888702,10.176135 C13.9900042,10.4269683 14.1521358,11.0614292 13.8426119,11.5335861 L12.6487338,13.3484392 Z" id="Path"></path>
                </g>
            </g>
        </g>
    </g>
</svg>