<?xml version="1.0" encoding="UTF-8"?>
<svg width="73px" height="52px" viewBox="0 0 73 52" version="1.1" xmlns="http://www.w3.org/2000/svg" xmlns:xlink="http://www.w3.org/1999/xlink">
    <!-- Generator: sketchtool 52.3 (67297) - http://www.bohemiancoding.com/sketch -->
    <title>3C070541-039F-4235-B055-8DA16A42CB06</title>
    <desc>Created with sketchtool.</desc>
    <g id="Desktop" stroke="none" stroke-width="1" fill="none" fill-rule="evenodd">
        <g id="No-Results" transform="translate(-683.000000, -352.000000)" fill="#3E3564" fill-rule="nonzero" stroke="#FFFFFF">
            <g id="results" transform="translate(684.000000, 353.000000)">
                <g id="Group">
                    <g id="Shape">
                        <path d="M42,30.3030303 C48.627417,30.3030303 54,24.8761788 54,18.1818182 C54,11.4874576 48.627417,6.06060606 42,6.06060606 C35.372583,6.06060606 30,11.4874576 30,18.1818182 C30,24.8761788 35.372583,30.3030303 42,30.3030303 Z M56.0256,29.5787468 L70.0981832,43.7934773 C71.2662767,44.9733695 71.271624,46.8809518 70.0918832,48.0726092 C68.9203103,49.2560161 67.0217877,49.2569983 65.8555425,48.0789729 L51.5302508,33.6089814 C48.7664892,35.3546667 45.499895,36.3636364 42,36.3636364 C32.0588745,36.3636364 24,28.2233591 24,18.1818182 C24,8.14027727 32.0588745,0 42,0 C51.9411255,0 60,8.14027727 60,18.1818182 C60,22.4969202 58.5118188,26.4609279 56.0256,29.5787468 Z M0,10.6060606 C0,8.93247045 1.01933169,7.57575758 2.24331782,7.57575758 L15.7566822,7.57575758 C16.9956324,7.57575758 18,8.92080242 18,10.6060606 C18,12.2796508 16.9806683,13.6363636 15.7566822,13.6363636 L2.24331782,13.6363636 C1.0043676,13.6363636 0,12.2913188 0,10.6060606 Z M0,28.7878788 C0,27.1142888 1.01933169,25.7575758 2.24331782,25.7575758 L15.7566822,25.7575758 C16.9956324,25.7575758 18,27.1026206 18,28.7878788 C18,30.4614688 16.9806683,31.8181818 15.7566822,31.8181818 L2.24331782,31.8181818 C1.0043676,31.8181818 0,30.473137 0,28.7878788 Z M0,46.969697 C0,45.296107 0.986883401,43.9393939 2.24717871,43.9393939 L45.0028212,43.9393939 C46.2439037,43.9393939 47.25,45.2844388 47.25,46.969697 C47.25,48.643287 46.2631167,50 45.0028212,50 L2.24717871,50 C1.00609618,50 0,48.6549552 0,46.969697 Z"></path>
                    </g>
                </g>
            </g>
        </g>
    </g>
</svg>