<?xml version="1.0" encoding="UTF-8"?>
<svg width="28px" height="28px" viewBox="0 0 28 28" version="1.1" xmlns="http://www.w3.org/2000/svg" xmlns:xlink="http://www.w3.org/1999/xlink">
    <!-- Generator: Sketch 52.3 (67297) - http://www.bohemiancoding.com/sketch -->
    <title>search_icon_big</title>
    <desc>Created with Sketch.</desc>
    <g id="Symbols" stroke="none" stroke-width="1" fill="none" fill-rule="evenodd">
        <g id="Search_Desktop" transform="translate(-841.000000, -26.000000)" fill="#FFFFFF" stroke="#FFFFFF" stroke-width="2">
            <g id="Search">
                <path d="M867.772152,51.6035156 C867.924051,51.7558601 868,51.9462879 868,52.1748047 C868,52.4033215 867.924051,52.5937492 867.772152,52.7460938 C867.603375,52.9153654 867.409284,53 867.189873,53 C866.970463,53 866.776372,52.9153654 866.607595,52.7460938 L858.759494,44.8242188 C857.864974,45.6028685 856.852326,46.2122374 855.721519,46.6523438 C854.590712,47.0924501 853.392411,47.3125 852.126582,47.3125 C850.725731,47.3125 849.409289,47.0459011 848.177215,46.5126953 C846.945142,45.9794895 845.869203,45.2558639 844.949367,44.3417969 C844.029531,43.4277298 843.308019,42.3528708 842.78481,41.1171875 C842.261601,39.8815042 842,38.5612049 842,37.15625 C842,35.7512951 842.261601,34.4309958 842.78481,33.1953125 C843.308019,31.9596292 844.029531,30.8847702 844.949367,29.9707031 C845.869203,29.0566361 846.945142,28.3330105 848.177215,27.7998047 C849.409289,27.2665989 850.725731,27 852.126582,27 C853.510555,27 854.818559,27.2665989 856.050633,27.7998047 C857.282707,28.3330105 858.358645,29.0566361 859.278481,29.9707031 C860.198317,30.8847702 860.924048,31.9596292 861.455696,33.1953125 C861.987344,34.4309958 862.253165,35.7512951 862.253165,37.15625 C862.253165,38.3919333 862.042196,39.5641221 861.620253,40.6728516 C861.19831,41.7815811 860.624476,42.7760373 859.898734,43.65625 L867.772152,51.6035156 Z M852.013373,46 C853.243691,46 854.407127,45.7640973 855.503715,45.2922849 C856.600303,44.8204724 857.554231,44.1750783 858.365527,43.3560831 C859.176824,42.5370879 859.81872,41.5845752 860.291233,40.4985163 C860.763747,39.4124575 861,38.246297 861,37 C861,35.753703 860.763747,34.5875425 860.291233,33.5014837 C859.81872,32.4154248 859.176824,31.4629121 858.365527,30.6439169 C857.554231,29.8249217 856.600303,29.1795276 855.503715,28.7077151 C854.407127,28.2359027 853.243691,28 852.013373,28 C850.765224,28 849.592873,28.2359027 848.496285,28.7077151 C847.399697,29.1795276 846.445769,29.8249217 845.634473,30.6439169 C844.823176,31.4629121 844.18128,32.4154248 843.708767,33.5014837 C843.236253,34.5875425 843,35.753703 843,37 C843,38.246297 843.236253,39.4124575 843.708767,40.4985163 C844.18128,41.5845752 844.823176,42.5370879 845.634473,43.3560831 C846.445769,44.1750783 847.399697,44.8204724 848.496285,45.2922849 C849.592873,45.7640973 850.765224,46 852.013373,46 Z" id="search_icon_big"></path>
            </g>
        </g>
    </g>
</svg>