<?xml version="1.0" encoding="UTF-8"?>
<svg width="15px" height="15px" viewBox="0 0 15 15" version="1.1" xmlns="http://www.w3.org/2000/svg" xmlns:xlink="http://www.w3.org/1999/xlink">
    <!-- Generator: Sketch 52.3 (67297) - http://www.bohemiancoding.com/sketch -->
    <title>search_big</title>
    <desc>Created with Sketch.</desc>
    <g id="Symbols" stroke="none" stroke-width="1" fill="none" fill-rule="evenodd">
        <g id="Search-Mobile" transform="translate(-257.000000, -17.000000)" fill="#FFFFFF" stroke="#FFFFFF">
            <g id="Search">
                <path d="M270.886076,30.3017578 C270.962026,30.3779301 271,30.473144 271,30.5874023 C271,30.7016607 270.962026,30.7968746 270.886076,30.8730469 C270.801687,30.9576827 270.704642,31 270.594937,31 C270.485232,31 270.388186,30.9576827 270.303797,30.8730469 L266.379747,26.9121094 C265.932487,27.3014342 265.426163,27.6061187 264.860759,27.8261719 C264.295356,28.0462251 263.696206,28.15625 263.063291,28.15625 C262.362866,28.15625 261.704644,28.0229506 261.088608,27.7563477 C260.472571,27.4897448 259.934601,27.127932 259.474684,26.6708984 C259.014766,26.2138649 258.65401,25.6764354 258.392405,25.0585938 C258.1308,24.4407521 258,23.7806025 258,23.078125 C258,22.3756475 258.1308,21.7154979 258.392405,21.0976562 C258.65401,20.4798146 259.014766,19.9423851 259.474684,19.4853516 C259.934601,19.028318 260.472571,18.6665052 261.088608,18.3999023 C261.704644,18.1332994 262.362866,18 263.063291,18 C263.755278,18 264.40928,18.1332994 265.025316,18.3999023 C265.641353,18.6665052 266.179323,19.028318 266.639241,19.4853516 C267.099158,19.9423851 267.462024,20.4798146 267.727848,21.0976562 C267.993672,21.7154979 268.126582,22.3756475 268.126582,23.078125 C268.126582,23.6959666 268.021098,24.282061 267.810127,24.8364258 C267.599155,25.3907905 267.312238,25.8880186 266.949367,26.328125 L270.886076,30.3017578 Z M263.006686,27.5 C263.621846,27.5 264.203563,27.3820487 264.751857,27.1461424 C265.300151,26.9102362 265.777115,26.5875391 266.182764,26.1780415 C266.588412,25.7685439 266.90936,25.2922876 267.145617,24.7492582 C267.381873,24.2062287 267.5,23.6231485 267.5,23 C267.5,22.3768515 267.381873,21.7937713 267.145617,21.2507418 C266.90936,20.7077124 266.588412,20.2314561 266.182764,19.8219585 C265.777115,19.4124609 265.300151,19.0897638 264.751857,18.8538576 C264.203563,18.6179513 263.621846,18.5 263.006686,18.5 C262.382612,18.5 261.796437,18.6179513 261.248143,18.8538576 C260.699849,19.0897638 260.222885,19.4124609 259.817236,19.8219585 C259.411588,20.2314561 259.09064,20.7077124 258.854383,21.2507418 C258.618127,21.7937713 258.5,22.3768515 258.5,23 C258.5,23.6231485 258.618127,24.2062287 258.854383,24.7492582 C259.09064,25.2922876 259.411588,25.7685439 259.817236,26.1780415 C260.222885,26.5875391 260.699849,26.9102362 261.248143,27.1461424 C261.796437,27.3820487 262.382612,27.5 263.006686,27.5 Z" id="search_big"></path>
            </g>
        </g>
    </g>
</svg>