<?xml version="1.0" encoding="UTF-8"?>
<svg width="20px" height="20px" viewBox="0 0 20 20" version="1.1" xmlns="http://www.w3.org/2000/svg" xmlns:xlink="http://www.w3.org/1999/xlink">
    <!-- Generator: Sketch 52.3 (67297) - http://www.bohemiancoding.com/sketch -->
    <title>search_icon_small</title>
    <desc>Created with Sketch.</desc>
    <g id="Symbols" stroke="none" stroke-width="1" fill="none" fill-rule="evenodd">
        <g id="Search_Desktop" transform="translate(-29.000000, -31.000000)" fill="#A59FC0" stroke="#DCD9EB" stroke-width="2">
            <g id="Search">
                <path d="M47.842259,49.0332031 C47.9474202,49.1386724 48,49.270507 48,49.4287109 C48,49.5869149 47.9474202,49.7187495 47.842259,49.8242188 C47.7254132,49.9414068 47.5910426,50 47.4391431,50 C47.2872436,50 47.152873,49.9414068 47.0360273,49.8242188 L41.6027264,44.3398438 C40.9834438,44.8789089 40.2823798,45.3007797 39.4995131,45.6054688 C38.7166465,45.9101578 37.887054,46.0625 37.0107108,46.0625 C36.040891,46.0625 35.1295077,45.8779315 34.2765336,45.5087891 C33.4235595,45.1396466 32.6786789,44.638675 32.0418695,44.0058594 C31.4050601,43.3730437 30.905552,42.6289105 30.5433301,41.7734375 C30.1811082,40.9179645 30,40.0039111 30,39.03125 C30,38.0585889 30.1811082,37.1445355 30.5433301,36.2890625 C30.905552,35.4335895 31.4050601,34.6894563 32.0418695,34.0566406 C32.6786789,33.423825 33.4235595,32.9228534 34.2765336,32.5537109 C35.1295077,32.1845685 36.040891,32 37.0107108,32 C37.9688461,32 38.8743872,32.1845685 39.7273612,32.5537109 C40.5803353,32.9228534 41.3252159,33.423825 41.9620253,34.0566406 C42.5988347,34.6894563 43.101264,35.4335895 43.4693281,36.2890625 C43.8373923,37.1445355 44.0214216,38.0585889 44.0214216,39.03125 C44.0214216,39.886723 43.8753666,40.6982383 43.5832522,41.4658203 C43.2911378,42.2334023 42.8938681,42.921872 42.3914314,43.53125 L47.842259,49.0332031 Z M37.0107108,44.9550781 C37.8169466,44.9550781 38.5793538,44.7998062 39.2979552,44.4892578 C40.0165567,44.1787094 40.6416721,43.7539089 41.1733204,43.2148438 C41.7049686,42.6757786 42.125607,42.0488317 42.4352483,41.3339844 C42.7448896,40.6191371 42.8997079,39.8515666 42.8997079,39.03125 C42.8997079,38.2109334 42.7448896,37.4433629 42.4352483,36.7285156 C42.125607,36.0136683 41.7049686,35.3867214 41.1733204,34.8476562 C40.6416721,34.3085911 40.0165567,33.8837906 39.2979552,33.5732422 C38.5793538,33.2626938 37.8169466,33.1074219 37.0107108,33.1074219 C36.1927905,33.1074219 35.4245411,33.2626938 34.7059396,33.5732422 C33.9873382,33.8837906 33.3622227,34.3085911 32.8305745,34.8476562 C32.2989263,35.3867214 31.8782878,36.0136683 31.5686465,36.7285156 C31.2590053,37.4433629 31.104187,38.2109334 31.104187,39.03125 C31.104187,39.8515666 31.2590053,40.6191371 31.5686465,41.3339844 C31.8782878,42.0488317 32.2989263,42.6757786 32.8305745,43.2148438 C33.3622227,43.7539089 33.9873382,44.1787094 34.7059396,44.4892578 C35.4245411,44.7998062 36.1927905,44.9550781 37.0107108,44.9550781 Z" id="search_icon_small"></path>
            </g>
        </g>
    </g>
</svg>