<?xml version="1.0" encoding="UTF-8"?>
<svg width="17px" height="17px" viewBox="0 0 17 17" version="1.1" xmlns="http://www.w3.org/2000/svg" xmlns:xlink="http://www.w3.org/1999/xlink">
    <!-- Generator: sketchtool 52.1 (67048) - http://www.bohemiancoding.com/sketch -->
    <title>B664706E-8CC5-42E4-8545-17033F70136A</title>
    <desc>Created with sketchtool.</desc>
    <g id="Desktop" stroke="none" stroke-width="1" fill="none" fill-rule="evenodd">
        <g id="List-Page-Mobile-Add" transform="translate(-204.000000, -15.000000)" fill="#3E3564" stroke="#3E3564" stroke-width="0.6">
            <g id="Header_Mobile">
                <path d="M219.868549,30.1943359 C219.956183,30.282227 220,30.3920892 220,30.5239258 C220,30.6557624 219.956183,30.7656246 219.868549,30.8535156 C219.771178,30.9511724 219.659202,31 219.532619,31 C219.406036,31 219.294061,30.9511724 219.196689,30.8535156 L214.668939,26.2832031 C214.15287,26.7324241 213.56865,27.0839831 212.916261,27.3378906 C212.263872,27.5917981 211.572545,27.71875 210.842259,27.71875 C210.034076,27.71875 209.27459,27.5649429 208.563778,27.2573242 C207.852966,26.9497055 207.232232,26.5322292 206.701558,26.0048828 C206.170883,25.4775364 205.754627,24.8574254 205.452775,24.1445312 C205.150924,23.4316371 205,22.6699259 205,21.859375 C205,21.0488241 205.150924,20.2871129 205.452775,19.5742188 C205.754627,18.8613246 206.170883,18.2412136 206.701558,17.7138672 C207.232232,17.1865208 207.852966,16.7690445 208.563778,16.4614258 C209.27459,16.1538071 210.034076,16 210.842259,16 C211.640705,16 212.395323,16.1538071 213.106134,16.4614258 C213.816946,16.7690445 214.43768,17.1865208 214.968354,17.7138672 C215.499029,18.2412136 215.91772,18.8613246 216.22444,19.5742188 C216.53116,20.2871129 216.684518,21.0488241 216.684518,21.859375 C216.684518,22.5722692 216.562806,23.248532 216.319377,23.8881836 C216.075948,24.5278352 215.74489,25.10156 215.326193,25.609375 L219.868549,30.1943359 Z M210.776946,26.9615385 C211.486745,26.9615385 212.157958,26.8254408 212.790605,26.5532413 C213.423252,26.2810418 213.973595,25.908699 214.44165,25.4362018 C214.909706,24.9637046 215.280031,24.414178 215.552635,23.7876056 C215.825239,23.1610332 215.961538,22.4882483 215.961538,21.7692308 C215.961538,21.0502133 215.825239,20.3774284 215.552635,19.750856 C215.280031,19.1242836 214.909706,18.574757 214.44165,18.1022598 C213.973595,17.6297625 213.423252,17.2574198 212.790605,16.9852203 C212.157958,16.7130208 211.486745,16.5769231 210.776946,16.5769231 C210.05686,16.5769231 209.380504,16.7130208 208.747857,16.9852203 C208.11521,17.2574198 207.564867,17.6297625 207.096811,18.1022598 C206.628755,18.574757 206.258431,19.1242836 205.985827,19.750856 C205.713223,20.3774284 205.576923,21.0502133 205.576923,21.7692308 C205.576923,22.4882483 205.713223,23.1610332 205.985827,23.7876056 C206.258431,24.414178 206.628755,24.9637046 207.096811,25.4362018 C207.564867,25.908699 208.11521,26.2810418 208.747857,26.5532413 C209.380504,26.8254408 210.05686,26.9615385 210.776946,26.9615385 Z" id="search_icon_big"></path>
            </g>
        </g>
    </g>
</svg>