<?xml version="1.0" encoding="UTF-8"?>
<svg width="25px" height="25px" viewBox="0 0 25 25" version="1.1" xmlns="http://www.w3.org/2000/svg" xmlns:xlink="http://www.w3.org/1999/xlink">
    <!-- Generator: Sketch 52.3 (67297) - http://www.bohemiancoding.com/sketch -->
    <title>share</title>
    <desc>Created with Sketch.</desc>
    <g id="Desktop" stroke="none" stroke-width="1" fill="none" fill-rule="evenodd" opacity="0.197846912">
        <g id="Opportunity-Page-Mobile" transform="translate(-164.000000, -512.000000)" fill="#3E3564" fill-rule="nonzero">
            <g id="Info" transform="translate(0.000000, 24.000000)">
                <g id="Intro">
                    <g id="share" transform="translate(164.000000, 488.000000)">
                        <path d="M17.1632494,0.898673726 C15.722489,0.318915622 14.1483909,0 12.4996756,0 C6.12217752,0 0.859719699,4.77659685 0.0957046457,10.9469491 C0.0324422528,11.4563056 0,11.9747463 0,12.5006489 C0,19.4055127 5.59628861,25 12.4996756,25 C19.4043602,25 25,19.4055127 25,12.5006489 C25,7.2448675 21.7577213,2.74728127 17.1632494,0.898673726 Z M9.64897482,12.6956319 C9.64897482,12.8980768 9.61815468,13.0940331 9.56105632,13.2779854 L14.1221126,16.5949674 C14.4802751,16.2436087 14.9704775,16.0259155 15.5109655,16.0259155 C16.6055671,16.0259155 17.4957825,16.9168029 17.4957825,18.0124062 C17.4957825,19.1073607 16.6055671,19.9979236 15.5109655,19.9979236 C14.415715,19.9979236 13.5248508,19.1073607 13.5248508,18.0124062 C13.5248508,17.8086636 13.5559953,17.6127073 13.6127693,17.4277817 L9.05268622,14.1111241 C8.69419933,14.4628072 8.20367246,14.6805004 7.66286011,14.6805004 C6.5682585,14.6805004 5.67804308,13.7902619 5.67804308,12.6956319 C5.67804308,11.600353 6.5682585,10.7094656 7.66286011,10.7094656 C8.20334804,10.7094656 8.69355048,10.9271588 9.05203737,11.2785175 L13.5855178,7.9745127 C13.5475603,7.82105687 13.5248508,7.66143684 13.5248508,7.49630149 C13.5248508,6.40134704 14.415715,5.51078408 15.5109655,5.51078408 C16.6055671,5.51078408 17.4957825,6.40134704 17.4957825,7.49630149 C17.4957825,8.59158037 16.6055671,9.48246775 15.5109655,9.48246775 C14.9338178,9.48246775 14.4150662,9.23330478 14.051713,8.83912118 L9.56105632,12.1119806 C9.61783026,12.2965818 9.64897482,12.4925381 9.64897482,12.6956319 Z" id="Shape"></path>
                    </g>
                </g>
            </g>
        </g>
    </g>
</svg>