<?xml version="1.0" encoding="UTF-8"?>
<svg width="16px" height="16px" viewBox="0 0 16 16" version="1.1" xmlns="http://www.w3.org/2000/svg" xmlns:xlink="http://www.w3.org/1999/xlink">
    <!-- Generator: Sketch 52.3 (67297) - http://www.bohemiancoding.com/sketch -->
    <title>skills_icon</title>
    <desc>Created with Sketch.</desc>
    <g id="Symbols" stroke="none" stroke-width="1" fill="none" fill-rule="evenodd">
        <g id="Event_Card_Desktop_1" transform="translate(-16.000000, -431.000000)" fill="#3E3564" fill-rule="nonzero">
            <g id="skills" transform="translate(16.000000, 429.000000)">
                <g id="skills_icon" transform="translate(0.000000, 2.000000)">
                    <path d="M8,5.65625 C6.96590625,5.65625 6.125,6.49715625 6.125,7.53125 C6.125,8.56534375 6.96590625,9.40625 8,9.40625 C9.03409375,9.40625 9.875,8.56534375 9.875,7.53125 C9.875,6.49715625 9.03409375,5.65625 8,5.65625 Z" id="Shape"></path>
                    <path d="M15.6081563,6.60015625 L14.3629062,6.3978125 C14.2068125,5.77615625 13.9614375,5.18565625 13.6314062,4.63496875 L14.3473438,3.632 C14.4805625,3.4456875 14.4595,3.19025 14.2974375,3.02821875 L12.97175,1.70253125 C12.8087813,1.54003125 12.5538125,1.5185 12.3679687,1.652625 L11.365,2.3685625 C10.8143125,2.0385 10.2237812,1.79315625 9.60215625,1.6370625 L9.3998125,0.3918125 C9.3623125,0.16571875 9.16684375,0 8.9375,0 L7.0625,0 C6.83315625,0 6.6376875,0.16571875 6.60015625,0.39184375 L6.3978125,1.63709375 C5.77615625,1.7931875 5.18565625,2.0385625 4.63496875,2.36859375 L3.632,1.65265625 C3.4456875,1.51853125 3.1898125,1.54003125 3.02821875,1.7025625 L1.70253125,3.02821875 C1.54046875,3.19028125 1.5194375,3.4456875 1.652625,3.632 L2.3685625,4.63496875 C2.0385,5.18565625 1.79315625,5.7761875 1.6370625,6.3978125 L0.3918125,6.60015625 C0.16571875,6.6376875 0,6.83315625 0,7.0625 L0,8.9375 C0,9.16684375 0.16571875,9.3623125 0.39184375,9.39984375 L1.63709375,9.6021875 C1.7931875,10.2238438 2.0385625,10.8143438 2.36859375,11.3650313 L1.65265625,12.368 C1.5194375,12.5543125 1.5405,12.80975 1.7025625,12.9717813 L3.02825,14.2974688 C3.18984375,14.4590625 3.44571875,14.4796563 3.63203125,14.347375 L4.635,13.6314375 C5.1856875,13.9615 5.77621875,14.2068438 6.39784375,14.3629375 L6.6001875,15.6081875 C6.6376875,15.8342813 6.83315625,16 7.0625,16 L8.9375,16 C9.16684375,16 9.3623125,15.8342813 9.39984375,15.6081563 L9.6021875,14.3629062 C10.2238438,14.2068125 10.8143438,13.9614375 11.3650313,13.6314062 L12.368,14.3473438 C12.5538438,14.479625 12.8088125,14.4590313 12.9717813,14.2974375 L14.2974688,12.97175 C14.4595313,12.8096875 14.4805625,12.5542813 14.347375,12.3679687 L13.6314375,11.365 C13.9615,10.8143125 14.2068438,10.2237812 14.3629375,9.60215625 L15.6081875,9.3998125 C15.8342813,9.3623125 16,9.16684375 16,8.9375 L16,7.0625 C16,6.83315625 15.8342813,6.6376875 15.6081563,6.60015625 Z M8,13.15625 C5.15684375,13.15625 2.84375,10.8431562 2.84375,8 C2.84375,5.15684375 5.15684375,2.84375 8,2.84375 C10.8431562,2.84375 13.15625,5.15684375 13.15625,8 C13.15625,10.8431562 10.8431562,13.15625 8,13.15625 Z" id="Shape"></path>
                    <path d="M10.1653125,9.304125 C9.64915625,9.9333125 8.87553125,10.34375 8,10.34375 C7.12446875,10.34375 6.35084375,9.9333125 5.83465625,9.304125 C5.3853125,9.702375 5.05753125,10.2244687 4.87671875,10.8102812 C5.6495,11.6683438 6.757,12.21875 8,12.21875 C9.243,12.21875 10.3505,11.6683438 11.12325,10.8102812 C10.9424375,10.2244687 10.6146875,9.702375 10.1653125,9.304125 Z" id="Shape"></path>
                </g>
            </g>
        </g>
    </g>
</svg>